<svg width="334" height="93" viewBox="0 0 334 93" fill="none" xmlns="http://www.w3.org/2000/svg">
<path d="M310.944 61.2177C308.797 61.5657 311.291 58.0239 312.122 56.6317C312.953 55.2433 314.345 53.8931 313.922 50.5196C313.369 46.2128 308.404 46.2549 306.372 47.0467C304.363 47.5324 298.06 53.5756 295.429 55.2433C292.798 56.9109 290.095 58.2305 290.442 54.9641C290.446 54.9182 290.457 54.8761 290.461 54.8302C293.713 52.9445 297.366 50.5158 299.097 48.7793C301.938 45.9298 298.403 44.1245 294.457 45.861C291.826 47.0199 289.325 50.3704 288.356 54.245C286.862 55.0635 285.26 55.9164 283.697 56.7541C283.67 55.9853 283.632 55.1974 283.586 54.4018C283.24 48.634 280.956 46.4806 278.946 48.0794C276.937 49.6781 277.078 49.4678 274.169 52.0381C271.26 54.6083 268.213 57.389 268.697 53.9122C268.819 53.0363 269.174 51.9233 269.65 50.7185C270.577 49.9535 271.431 49.2421 272.159 48.634C275.9 45.5091 279.362 41.8258 282.13 37.1709C284.902 32.5161 281.299 31.6823 279.636 32.4473C277.974 33.2122 275.965 34.8799 274.096 37.3086C272.785 39.0145 269.193 44.9239 267.26 50.1677C264.16 52.7112 261.102 55.0214 259.554 56.1345C255.966 58.7162 254.231 58.8998 253.122 56.8267C254.925 55.6258 256.664 54.3942 257.686 53.4953C259.97 51.4796 262.395 48.3547 260.595 46.6871C258.795 45.0195 252.561 47.1729 251.383 54.0499C251.257 54.7766 251.196 55.4422 251.181 56.0465C250.971 56.1689 250.762 56.2913 250.552 56.4137C247.296 58.2878 247.09 58.0813 246.464 56.1345C245.843 54.1876 246.88 51.4796 247.99 49.7432C249.099 48.0067 248.337 47.3106 248.337 47.3106C246.606 45.0883 240.65 46.3391 237.119 47.7275C233.588 49.1159 228.807 53.8396 227.076 55.3695C225.345 56.8994 228.807 51.3419 230.675 49.5328C232.544 47.7275 233.653 46.6833 233.585 45.5052C233.516 44.3234 233.379 43.3519 228.045 44.3234C222.71 45.2949 218.974 50.0912 217.243 52.2446C215.512 54.398 215.165 53.633 215.58 52.3134C215.996 50.9939 220.011 46.8937 222.646 44.3922C225.276 41.8908 227.564 39.4582 228.88 37.0983C230.195 34.7345 228.601 34.5968 227.011 35.7099C225.418 36.8229 225.418 36.1268 220.019 43.3519C214.616 50.577 213.784 50.7147 209.491 53.8434C205.198 56.9683 205.267 54.0499 205.267 52.6615C205.267 51.2731 206.582 49.8847 208.45 48.3356C210.319 46.7904 211.981 46.9816 212.45 47.1385C212.919 47.2953 213.613 47.739 214.925 47.2264C216.438 46.6336 215.054 45.7883 215.054 45.7883C212.145 44.2584 207.756 45.5052 201.663 50.0912C195.57 54.6772 195.708 55.3695 194.324 55.6487C192.94 55.9279 193.214 53.7019 195.292 50.0912C197.37 46.4806 194.754 47.7428 194.202 48.2859C194.03 48.4542 184.486 57.8709 181.856 60.6516C179.225 63.4322 179.499 58.7047 182.965 53.0096C186.427 47.3144 190.03 40.3647 192.52 34.5318C195.014 28.6951 195.982 22.8622 186.286 27.8613C180.334 30.9326 175.896 33.7974 171.915 37.802C171.984 37.5725 172.022 37.4463 172.022 37.4463C174.931 25.6352 161.495 33.0019 153.74 42.5869C145.984 52.1719 145.999 59.5615 145.999 59.5615C145.611 62.3422 147.3 64.748 147.852 61.2062C148.104 59.573 148.386 58.8195 150.346 54.1914C152.771 48.0105 160.732 41.7569 166.76 38.7009C169.235 37.4463 169.605 38.7927 169.185 40.816C167.676 42.6366 166.196 44.6791 164.686 47.0352C158.452 56.7617 163.718 59.2632 166.627 52.5927C168.03 49.3722 169.338 45.7309 170.318 42.824C173.395 39.7757 177.143 37.7523 181.589 35.9202C188.166 33.2122 190.038 34.2526 188.723 38.0048C187.407 41.7569 183.251 47.9378 180.899 51.9004C178.542 55.8591 177.299 59.1255 178.958 62.8088C180.62 66.4921 186.298 59.1981 188.17 57.1136C190.038 55.0291 189.554 55.9317 190.038 58.7124C190.522 61.493 192.879 60.9346 194.469 59.1293C196.062 57.324 198.346 55.5875 200.009 53.851C201.671 52.1146 201.324 54.5471 200.703 58.1578C200.081 61.7684 203.959 60.1735 206.38 58.5747C208.805 56.9759 214.414 51.9042 214.414 51.9042C212.545 54.4745 212.961 56.7656 212.888 58.9189C212.82 61.0723 213.788 61.5581 215.451 59.3358C217.113 57.1136 222.932 51.4873 224.663 50.0262C226.394 48.5689 230.756 47.5248 226.394 51.4835C222.032 55.4422 223.831 58.9878 224.316 60.2385C224.8 61.4892 225.353 63.2945 228.403 57.6682C231.449 52.0419 239.967 48.5689 239.967 48.5689C237.474 49.8197 233.665 54.4745 233.043 58.5709C232.422 62.6711 235.674 61.1412 237.199 59.4735C238.591 57.9512 242.976 54.3483 243.567 53.5795C243.559 53.9696 243.529 55.0597 242.945 57.6682C242.045 61.6958 245.229 61.6958 247.376 60.4489C248.249 59.9402 249.736 59.0299 251.353 57.9971C252.077 61.3477 255.078 61.7034 257.834 59.8943C259.935 58.5173 263.191 55.9815 266.28 53.4838C266.07 54.4554 265.967 55.358 266.005 56.1421C266.284 61.5619 269.052 58.5747 270.993 57.324C272.933 56.0733 278.542 51.4184 279.373 50.6535C280.204 49.8885 280.361 49.5175 280.898 50.03C281.592 50.6535 281.451 50.7261 281.73 52.8107C281.859 53.7898 281.955 55.6716 281.802 57.783C280.612 58.4255 279.48 59.0452 278.473 59.6151C272.724 62.8815 271.965 65.2414 272.724 68.2286C273.486 71.2158 277.78 71.7704 280.826 68.5766C283.186 66.102 283.758 62.4148 283.735 58.1999C284.299 57.9015 284.841 57.6491 285.329 57.4617C285.996 57.2054 286.942 56.7541 288.025 56.1842C287.88 57.5305 287.926 58.8998 288.238 60.2385C289.622 66.2129 300.981 54.7499 303.127 52.4588C305.274 50.1677 305.968 49.4028 308.805 49.5404C311.645 49.6781 309.773 54.681 308.042 58.154C306.311 61.6269 306.727 64.683 311.157 63.5049C315.584 62.3307 313.09 60.8696 310.944 61.2177ZM294.739 48.611C296.013 47.6127 296.794 48.2285 295.292 49.8273C294.823 50.4584 293.233 51.4911 291.128 52.7036C292.139 50.7032 293.942 49.3377 294.739 48.611ZM274.52 41.21C275.766 39.1254 277.497 37.5993 276.46 40.8619C276.071 42.082 274.123 44.1589 271.645 46.4194C272.785 44.1819 273.948 42.1662 274.52 41.21ZM242.919 51.2846C241.439 52.6309 237.031 56.8765 237.409 55.7328C237.409 55.7328 238.618 50.7453 242.514 49.5328C246.411 48.3203 244.398 49.9382 242.919 51.2846ZM257.137 49.2C259.077 48.2285 259.768 49.2689 258.589 50.73C257.69 51.843 255.383 53.48 252.893 55.0291C253.293 52.7763 255.615 49.965 257.137 49.2ZM279.991 64.901C277.844 68.722 275.629 66.9167 276.598 64.4458C277.211 62.8815 279.377 60.9499 281.623 59.4582C281.36 61.3745 280.868 63.3328 279.991 64.901Z" fill="white"/>
<path d="M139.014 56.8649C136.704 58.8117 131.35 62.3306 131.35 58.3489C131.35 54.3673 133.383 52.3286 134.954 50.0108C136.524 47.6968 135.598 46.8629 133.661 46.6755C131.72 46.4881 127.107 47.6011 124.518 50.1026C124.518 50.1026 124.056 49.0852 123.317 48.6224C122.577 48.1596 121.849 49.8387 121.376 50.4736C120.926 51.0817 113.895 57.9779 110.109 59.6455C108.191 60.4908 107.341 59.9783 107.017 58.8461C107.451 58.4637 107.84 58.0888 108.172 57.7446C111.497 54.2716 118.005 48.1596 113.849 45.9335C109.693 43.7113 106.231 46.905 105.4 50.378C104.935 52.3248 104.599 55.1934 104.786 57.6949C101.877 59.4046 98.3462 60.4028 95.4218 58.1653C92.8443 56.1917 92.9396 53.0133 94.0491 49.8463C95.6963 49.0201 97.4426 48.0525 99.3071 46.9088C116.48 36.3485 119.805 31.7663 121.605 28.1519C123.404 24.5412 121.326 23.149 117.864 24.262C114.402 25.375 105.675 31.904 101.797 35.6562C99.6273 37.7522 95.2121 42.4988 92.5087 47.6585C87.5139 49.854 81.9967 51.5216 76.5862 51.6822C76.5862 51.6822 75.3852 51.774 74.1841 51.1276C72.9831 50.4774 71.5075 51.9614 74.1841 53.5373C74.1841 53.5373 79.5374 56.1841 90.9531 51.2959C90.0113 54.2104 89.8855 57.0944 91.2657 59.5576C94.7202 65.727 101.03 63.2944 105.221 60.2766C105.48 61.1181 105.85 61.818 106.361 62.2808C108.576 64.2812 111.348 61.9175 114.947 58.8614C114.947 58.8614 115.779 62.0858 116.473 63.39C117.167 64.6943 117.998 65.0003 118.829 63.2523C119.66 61.5006 121.46 57.473 125.616 54.417C129.772 51.3609 131.019 50.944 129.078 54.9716C127.137 58.9991 127.553 62.3344 128.8 63.3097C130.046 64.2812 131.846 66.0904 135.865 62.4759C139.88 58.8653 141.05 57.8938 141.054 57.3353C141.066 56.7501 141.325 54.918 139.014 56.8649ZM99.7722 40.376C102.174 37.5954 105.591 34.5393 109.099 33.6137C112.606 32.6881 112.976 34.1683 110.944 36.1152C109.77 37.2397 103.711 42.1125 95.7764 46.1133C97.1909 43.5889 98.8648 41.4279 99.7722 40.376ZM107.066 54.4552C107.436 51.2118 109.476 48.7524 111.135 49.5671C112.793 50.3818 111.314 51.6784 110.391 52.975C110.052 53.4531 108.721 54.8836 106.887 56.2797C106.929 55.683 106.998 55.0634 107.066 54.4552Z" fill="white"/>
<path d="M72.5791 59.7872C58.788 60.5407 39.4797 69.0203 34.2142 59.7489C28.9486 50.4813 35.4686 40.4182 42.7397 33.3729C50.0108 26.3314 66.3108 19.286 74.3369 24.3157C74.3369 24.3157 84.1169 29.0967 71.5802 36.3907L69.2581 37.3163C69.2581 37.3163 67.1801 38.4293 69.5365 38.8462C71.8928 39.2631 74.661 37.4578 77.7074 34.8187C80.7539 32.1795 86.294 24.3998 78.817 20.7854C71.3362 17.1747 59.0092 19.2554 48.3446 25.0921C37.68 30.9288 23.8279 41.3476 20.6442 54.1302C17.4604 66.9128 26.3215 74.5548 41.8361 70.2481C57.3468 65.9413 64.6903 62.3269 71.3362 61.91C77.9858 61.493 86.7096 62.6061 83.3848 73.3041C82.2562 76.9377 79.9265 80.6975 76.9525 84.3541H84.1702C89.2947 68.6417 85.7259 59.0681 72.5791 59.7872Z" fill="white"/>
</svg>
