<svg width="22" height="22" viewBox="0 0 22 22" fill="none" xmlns="http://www.w3.org/2000/svg">
<g clip-path="url(#clip0_486_95)">
<path d="M7.5625 9.28114H14.4375C14.8173 9.28114 15.125 8.97348 15.125 8.59364V7.90614C15.125 7.52629 14.8173 7.21864 14.4375 7.21864H7.5625C7.18266 7.21864 6.875 7.52629 6.875 7.90614V8.59364C6.875 8.97348 7.18266 9.28114 7.5625 9.28114ZM6.875 12.7186C6.875 13.0985 7.18266 13.4061 7.5625 13.4061H14.4375C14.8173 13.4061 15.125 13.0985 15.125 12.7186V12.0311C15.125 11.6513 14.8173 11.3436 14.4375 11.3436H7.5625C7.18266 11.3436 6.875 11.6513 6.875 12.0311V12.7186ZM11 17.9234C10.2945 17.9234 9.58891 17.706 8.98648 17.2707L0 10.779V19.9374C0 21.0765 0.923398 21.9999 2.0625 21.9999H19.9375C21.0766 21.9999 22 21.0765 22 19.9374V10.779L13.0135 17.2707C12.4111 17.7056 11.7055 17.9234 11 17.9234ZM21.2098 7.00165C20.8295 6.70344 20.469 6.42286 19.9375 6.02153V4.12489C19.9375 2.98579 19.0141 2.06239 17.875 2.06239H14.5428C14.4121 1.96786 14.2905 1.87934 14.1543 1.78051C13.432 1.25329 11.9969 -0.0151506 11 -0.000111566C10.0031 -0.0151506 8.5684 1.25329 7.84566 1.78051C7.70945 1.87934 7.58785 1.96786 7.45723 2.06239H4.125C2.9859 2.06239 2.0625 2.98579 2.0625 4.12489V6.02153C1.53098 6.42243 1.17047 6.70344 0.790195 7.00165C0.544052 7.19455 0.345002 7.4409 0.208104 7.72206C0.0712047 8.00323 4.23589e-05 8.31185 0 8.62458L0 9.08219L4.125 12.0621V4.12489H17.875V12.0621L22 9.08219V8.62458C22 7.99122 21.7087 7.39266 21.2098 7.00165Z" fill="#A6635D"/>
</g>
<defs>
<clipPath id="clip0_486_95">
<rect width="22" height="22" fill="white"/>
</clipPath>
</defs>
</svg>
