<svg width="184" height="28" viewBox="0 0 184 28" fill="none" xmlns="http://www.w3.org/2000/svg">
<path d="M13.8 0.303684C21.4053 0.303684 27.6 6.4381 27.6 14.0302C27.6 21.6223 21.4053 27.7567 13.8 27.7567C6.19467 27.7567 0 21.683 0 14.0302C0 6.37737 6.19467 0.303684 13.8 0.303684ZM121.992 0V24.0518C121.992 25.8739 122.728 26.3598 124.139 26.7242L124.2 27.0279H116.411V24.0518C115.491 26.2383 113.589 27.5745 111.136 27.5745C106.965 27.5745 104.205 23.8088 104.205 18.221C104.205 15.0627 105.125 12.3903 106.843 10.386C108.499 8.44242 110.768 7.40989 113.283 7.40989C114.509 7.40989 115.552 7.65284 116.411 8.19947V4.91968C116.411 4.19084 116.227 3.70495 115.859 3.34052C115.368 2.91537 114.571 2.73316 113.344 2.85463H113.283V2.55095L121.992 0ZM151.555 7.47063V24.0518C151.555 25.8739 152.291 26.3598 153.701 26.7242V27.0279H145.912V23.991C144.992 26.1776 142.968 27.5745 140.699 27.5745C138 27.5745 136.283 26.3598 135.608 23.991L135.485 23.3837C135.363 22.7763 135.301 22.1689 135.301 21.5616V12.694C135.301 10.7504 134.872 10.143 133.155 10.0216H133.093V9.71789L140.883 7.47063V21.4401C140.883 23.5051 141.803 24.6591 143.52 24.6591C144.563 24.6591 145.421 24.1125 145.912 23.2015V12.694C145.912 10.6897 145.544 10.0823 144.133 9.96084H144.072V9.65715L151.555 7.47063ZM95.312 7.40989C97.3973 7.40989 99.4213 8.13873 100.771 9.41421C102.304 10.8719 103.101 12.9977 103.163 15.7916V15.8523H91.448C91.2027 19.8609 93.7173 23.1407 97.0293 23.2622C99.4213 23.4444 101.507 21.9867 102.672 19.618L102.979 19.7395C102.304 24.1733 99.6667 27.5138 95.0667 27.5138C89.8533 27.5138 86.9093 23.2015 86.7867 17.7959V16.3989C87.032 14.0302 87.768 11.9044 89.056 10.3253C89.8533 9.35347 90.7733 8.62463 91.8773 8.13873C92.7973 7.65284 94.1467 7.40989 95.2507 7.40989H95.312ZM176.456 7.47063C179.768 7.47063 181.792 9.53568 181.792 13.0584V24.3555C181.792 25.6917 182.405 26.3598 183.939 26.7242H184V27.0279H176.149V13.2406C176.149 11.0541 175.352 9.96084 173.696 9.96084C172.347 9.96084 171.672 10.9326 171.304 11.7829C171.365 12.2081 171.427 12.6333 171.427 13.0584V24.5377C171.427 25.9346 171.856 26.4205 173.083 26.7242H173.144V27.0279H165.845V13.2406C165.845 11.0541 164.987 9.96084 163.392 9.96084C162.104 9.96084 161.429 10.8719 161.123 11.6007V24.5984C161.123 25.9954 161.552 26.4812 162.779 26.7849H162.84V27.0886H155.541V12.6333C155.541 10.6897 155.051 10.0823 153.395 9.96084H153.333V9.65715L161.123 7.53136V10.7504C161.92 8.68536 163.76 7.47063 166.091 7.47063C168.728 7.47063 170.568 8.7461 171.181 11.0541C171.979 8.86757 174.003 7.47063 176.456 7.47063ZM64.584 1.21474L71.8827 18.1603L79.1813 1.21474H87.032L86.9707 1.51842L86.8815 1.53806C85.529 1.84333 84.824 2.34418 84.824 4.00863V24.6591C84.9467 25.9954 85.6827 26.4205 86.9707 26.7242H87.032V27.0279H77.0347V26.7242H77.096C78.384 26.4205 79.12 25.9954 79.2427 24.6591V4.55526L69.6133 26.9671H69.0613L59.6773 5.16263V24.1733C59.6773 25.8739 60.4133 26.3598 61.824 26.6635H61.8853V26.9671H56.12V26.6635H56.1813C57.592 26.3598 58.328 25.8739 58.328 24.1733V4.00863C58.328 2.308 57.592 1.8221 56.1813 1.51842H56.12V1.21474H64.584ZM131.499 7.47063V24.0518L131.5 24.1639C131.53 25.8941 132.264 26.3674 133.645 26.7242L133.707 27.0279H125.917V12.694C125.917 10.7504 125.488 10.143 123.771 10.0216H123.709V9.71789L131.499 7.47063ZM35.88 1.09326C39.6213 1.09326 42.7493 6.924 42.7493 14.0302C42.7493 21.1971 39.6827 26.9671 35.88 26.9671C32.0773 26.9671 29.0107 21.1971 29.0107 14.0302C29.0107 6.86326 32.0773 1.09326 35.88 1.09326ZM46.4293 2.42947C47.84 2.42947 48.8827 7.65284 48.8827 14.0302C48.8827 20.4076 47.7787 25.6309 46.4293 25.6309C45.0935 25.6309 43.9981 20.5115 43.9763 14.2212L43.976 14.0302C43.976 7.65284 45.08 2.42947 46.4293 2.42947ZM114.203 8.50315C111.749 8.50315 110.216 11.7222 110.216 16.7026C110.216 19.0714 110.645 21.1364 111.381 22.5334C112.056 23.8696 113.037 24.5984 114.141 24.5984C115.245 24.5984 116.043 24.1125 116.411 23.2015V9.83936C115.981 8.98905 115.184 8.50315 114.203 8.50315ZM95.2507 8.56389C93.0427 8.56389 91.7547 11.1756 91.5707 14.8198V14.8805H98.256C98.3787 12.0259 97.888 10.143 96.968 9.232C96.4773 8.80684 95.9253 8.56389 95.2507 8.56389ZM128.493 0.18221C130.272 0.18221 131.621 1.51842 131.621 3.27979C131.621 5.04116 130.272 6.37737 128.493 6.37737C126.715 6.37737 125.365 5.04116 125.365 3.27979C125.365 1.51842 126.715 0.18221 128.493 0.18221Z" fill="white"/>
</svg>
