<svg width="146" height="84" viewBox="0 0 146 84" fill="none" xmlns="http://www.w3.org/2000/svg">
<path d="M12.7082 84V83.9278H12.2028V83.8556H11.9139V83.7834H11.6251V83.7112H11.3363V83.639H11.1919V83.5668H10.9753V83.4946H10.8309V83.4224H10.6142V83.3501H10.4698V83.2779H10.3976V83.2057H10.2532V83.1335H10.1088V83.0613H9.96439V82.9891H9.89219V82.9169H9.74777V82.8447H9.67557V82.7725H9.60336V82.7003H9.45895V82.6281H9.38675V82.5559H9.31454V82.4837H9.24233V82.4115H9.17013V82.3393H9.09792V82.2671H9.02572V82.1949H8.95351V82.1227H8.88131V82.0504H8.8091V81.9782H8.73689V81.906H8.66469V81.8338H8.59248V81.6894H8.52028V81.6172H8.44807V81.545H8.52028V81.4728H8.59248V81.4006H8.66469V81.3284H8.73689V81.2562H8.8091V81.184H8.88131V81.1118H8.95351V81.0396H9.09792V80.9674H9.17013V80.8952H9.24233V80.8229H9.31454V80.7507H9.38675V80.6785H9.45895V80.6063H9.53116V80.5341H9.60336V80.4619H9.74777V80.3897H9.81998V80.3175H9.89219V80.2453H9.96439V80.1731H10.0366V80.1009H10.1088V80.0287H10.181V79.9565H10.2532V79.8843H10.3976V79.8121H10.542V79.8843H10.6142V80.0287H10.6864V80.1009H10.8309V80.1731H10.9031V80.2453H10.9753V80.3175H11.0475V80.3897H11.1197V80.4619H11.1919V80.5341H11.3363V80.6063H11.4807V80.6785H11.6251V80.7507H11.6973V80.8229H11.8417V80.8952H11.9862V80.9674H12.1306V81.0396H12.3472V81.1118H12.636V81.184H12.8526V81.2562H13.2859V81.3284H14.5856V81.2562H14.9466V81.184H15.1632V81.1118H15.3798V81.0396H15.5964V80.9674H15.6686V80.8952H15.7409V80.8229H15.8131V80.7507H15.8853V80.6785H15.9575V80.6063H16.0297V80.4619H16.1019V80.1731H16.1741V79.5954H16.1019V79.3788H16.0297V79.3066H15.9575V79.1622H15.8853V79.09H15.7409V79.0178H15.6686V78.9456H15.5964V78.8734H15.452V78.8012H15.3076V78.729H15.091V78.6568H14.9466V78.5846H14.73V78.5124H14.5134V78.4402H14.2245V78.368H14.0079V78.2957H13.7191V78.2235H13.4303V78.1513H13.0692V78.0791H12.7804V78.0069H12.4916V77.9347H12.275V77.8625H12.0584V77.7903H11.8417V77.7181H11.6251V77.6459H11.4085V77.5737H11.2641V77.5015H11.1197V77.4293H10.9753V77.3571H10.7587V77.2849H10.6864V77.2127H10.542V77.1405H10.4698V77.0682H10.3254V76.996H10.2532V76.9238H10.1088V76.8516H10.0366V76.7794H9.96439V76.7072H9.89219V76.635H9.81998V76.5628H9.74777V76.4906H9.67557V76.3462H9.60336V76.274H9.53116V76.1296H9.45895V75.9852H9.38675V75.913H9.31454V75.6963H9.24233V75.4797H9.17013V75.2631H9.09792V74.9743H9.02572V73.3858H9.09792V73.0969H9.17013V72.8803H9.24233V72.6637H9.31454V72.4471H9.38675V72.3749H9.45895V72.2305H9.53116V72.1583H9.60336V72.0138H9.67557V71.9416H9.74777V71.7972H9.81998V71.725H9.89219V71.6528H9.96439V71.5806H10.0366V71.5084H10.1088V71.4362H10.181V71.364H10.2532V71.2918H10.3254V71.2196H10.3976V71.1474H10.542V71.0752H10.6142V71.003H10.7587V70.9308H10.8309V70.8586H10.9753V70.7863H11.1197V70.7141H11.2641V70.6419H11.4085V70.5697H11.6251V70.4975H11.7695V70.4253H11.9862V70.3531H12.3472V70.2809H12.636V70.2087H13.2136V70.1365H14.4411V70.2087H15.0188V70.2809H15.452V70.3531H15.6686V70.4253H15.8853V70.4975H16.1019V70.5697H16.3185V70.6419H16.5351V70.7141H16.6795V70.7863H16.8239V70.8586H16.9683V70.9308H17.0406V71.003H17.185V71.0752H17.3294V71.1474H17.4016V71.2196H17.546V71.2918H17.6904V71.364H17.7626V71.4362H17.8348V71.5084H17.9792V71.5806H18.0514V71.6528H18.1236V71.725H18.1958V71.7972H18.2681V71.8694H18.4125V71.9416H18.4847V72.0138H18.5569V72.0861H18.6291V72.1583H18.7013V72.3749H18.6291V72.4471H18.5569V72.5193H18.4847V72.5915H18.4125V72.6637H18.3403V72.7359H18.2681V72.8081H18.1958V72.8803H18.1236V72.9525H18.0514V73.0247H17.9792V73.0969H17.907V73.1691H17.8348V73.2413H17.7626V73.3135H17.6904V73.3858H17.6182V73.458H17.546V73.5302H17.4738V73.6024H17.4016V73.6746H17.3294V73.7468H17.2572V73.819H17.185V73.8912H17.1128V73.9634H16.9683V74.0356H16.8961V74.1078H16.8239V74.18H16.6795V74.1078H16.6073V74.0356H16.5351V73.9634H16.4629V73.8912H16.3907V73.819H16.2463V73.7468H16.1741V73.6746H16.1019V73.6024H15.9575V73.5302H15.8853V73.458H15.7409V73.3858H15.6686V73.3135H15.5242V73.2413H15.3798V73.1691H15.2354V73.0969H15.0188V73.0247H14.8022V72.9525H14.5856V72.8803H14.0801V72.8081H13.2859V72.8803H12.8526V72.9525H12.636V73.0247H12.4916V73.0969H12.3472V73.1691H12.275V73.2413H12.2028V73.3135H12.1306V73.3858H12.0584V73.458H11.9862V73.5302H11.9139V73.7468H11.8417V74.2522H11.9139V74.4688H11.9862V74.541H12.0584V74.6133H12.1306V74.6855H12.2028V74.7577H12.275V74.8299H12.3472V74.9021H12.4916V74.9743H12.636V75.0465H12.8526V75.1187H13.0692V75.1909H13.2859V75.2631H13.5025V75.3353H13.7913V75.4075H14.0801V75.4797H14.3689V75.5519H14.6578V75.6241H14.9466V75.6963H15.2354V75.7685H15.452V75.8408H15.7409V75.913H15.9575V75.9852H16.1741V76.0574H16.3185V76.1296H16.5351V76.2018H16.6795V76.274H16.8961V76.3462H16.9683V76.4184H17.1128V76.4906H17.2572V76.5628H17.4016V76.635H17.4738V76.7072H17.6182V76.7794H17.6904V76.8516H17.7626V76.9238H17.8348V76.996H17.907V77.0682H17.9792V77.1405H18.1236V77.2127H18.1958V77.3571H18.2681V77.4293H18.3403V77.5737H18.4125V77.6459H18.4847V77.7181H18.5569V77.8625H18.6291V78.0069H18.7013V78.2235H18.7735V78.4402H18.8457V78.5846H18.9179V78.9456H18.9901V80.6063H18.9179V80.8952H18.8457V81.184H18.7735V81.4006H18.7013V81.6172H18.6291V81.7616H18.5569V81.8338H18.4847V81.9782H18.4125V82.1227H18.3403V82.2671H18.2681V82.3393H18.1958V82.4115H18.1236V82.4837H18.0514V82.5559H17.9792V82.6281H17.907V82.7003H17.8348V82.8447H17.6904V82.9169H17.6182V82.9891H17.546V83.0613H17.4016V83.1335H17.3294V83.2057H17.185V83.2779H17.1128V83.3501H16.9683V83.4224H16.7517V83.4946H16.6073V83.5668H16.4629V83.639H16.2463V83.7112H16.0297V83.7834H15.6686V83.8556H15.3076V83.9278H14.9466V84H12.7082ZM25.9219 84V83.9278H25.4886V83.8556H25.1998V83.7834H24.9832V83.7112H24.7666V83.639H24.55V83.5668H24.3333V83.4946H24.2611V83.4224H24.1167V83.3501H23.9723V83.2779H23.9001V83.2057H23.7557V83.1335H23.6113V83.0613H23.5391V82.9891H23.3947V82.9169H23.3225V82.8447H23.2502V82.7725H23.178V82.7003H23.1058V82.6281H23.0336V82.5559H22.9614V82.4837H22.8892V82.4115H22.817V82.3393H22.7448V82.2671H22.6726V82.1949H22.6004V82.1227H22.5282V82.0504H22.456V81.9782H22.3838V81.8338H22.3116V81.7616H22.2394V81.6172H22.1672V81.545H22.095V81.4006H22.0227V81.3284H21.9505V81.184H21.8783V81.0396H21.8061V80.8952H21.7339V80.6785H21.6617V80.5341H21.5895V80.3175H21.5173V80.1731H21.4451V80.0287H21.3729V79.7399H21.3007V79.3788H21.2285V79.09H21.1563V78.729H21.0841V78.2235H21.0119V75.9852H21.0841V75.4075H21.1563V75.1187H21.2285V74.7577H21.3007V74.4688H21.3729V74.18H21.4451V74.0356H21.5173V73.819H21.5895V73.6746H21.6617V73.458H21.7339V73.3135H21.8061V73.0969H21.8783V73.0247H21.9505V72.8803H22.0227V72.7359H22.095V72.6637H22.1672V72.5193H22.2394V72.4471H22.3116V72.3027H22.3838V72.2305H22.456V72.0861H22.5282V72.0138H22.6004V71.9416H22.6726V71.8694H22.7448V71.7972H22.817V71.725H22.8892V71.6528H22.9614V71.5806H23.0336V71.5084H23.1058V71.4362H23.178V71.364H23.2502V71.2918H23.3225V71.2196H23.4669V71.1474H23.6113V71.0752H23.6835V71.003H23.8279V70.9308H23.9723V70.8586H24.0445V70.7863H24.1889V70.7141H24.3333V70.6419H24.4777V70.5697H24.6944V70.4975H24.911V70.4253H25.1276V70.3531H25.3442V70.2809H25.7052V70.2087H26.2107V70.1365H27.4382V70.2087H28.0158V70.2809H28.3046V70.3531H28.5213V70.4253H28.7379V70.4975H28.9545V70.5697H29.1711V70.6419H29.3877V70.7141H29.5321V70.7863H29.6044V70.8586H29.7488V70.9308H29.821V71.003H29.9654V71.0752H30.1098V71.1474H30.182V71.2196H30.3264V71.2918H30.3986V71.364H30.4708V71.4362H30.543V71.5084H30.6152V71.5806H30.6874V71.6528H30.7596V71.725H30.8319V71.7972H30.9041V71.8694H30.9763V71.9416H31.0485V72.0138H31.1207V72.0861H31.1929V72.1583H31.2651V72.3027H31.3373V72.3749H31.4095V72.5193H31.4817V72.5915H31.5539V72.7359H31.6261V72.8081H31.6983V72.9525H31.7705V73.0247H31.8427V73.2413H31.9149V73.3858H31.9871V73.6024H32.0593V73.7468H32.1316V73.9634H32.2038V74.1078H32.276V74.3244H32.3482V74.6133H32.4204V74.9743H32.4926V75.2631H32.5648V75.6241H32.637V76.4184H32.7092V77.7181H32.637V78.5124H32.5648V78.8734H32.4926V79.2344H32.4204V79.5232H32.3482V79.8843H32.276V80.1009H32.2038V80.2453H32.1316V80.4619H32.0593V80.6063H31.9871V80.7507H31.9149V80.9674H31.8427V81.1118H31.7705V81.2562H31.6983V81.3284H31.6261V81.4728H31.5539V81.545H31.4817V81.6894H31.4095V81.7616H31.3373V81.906H31.2651V81.9782H31.1929V82.1227H31.1207V82.1949H31.0485V82.2671H30.9763V82.3393H30.9041V82.4115H30.8319V82.4837H30.7596V82.5559H30.6874V82.6281H30.6152V82.7003H30.543V82.7725H30.4708V82.8447H30.3986V82.9169H30.2542V82.9891H30.182V83.0613H30.0376V83.1335H29.8932V83.2057H29.821V83.2779H29.6766V83.3501H29.5321V83.4224H29.4599V83.4946H29.3155V83.5668H29.0989V83.639H28.8823V83.7112H28.6657V83.7834H28.4491V83.8556H28.2324V83.9278H27.727V84H25.9219ZM39.7854 84V83.9278H39.3521V83.8556H39.1355V83.7834H38.8467V83.7112H38.6301V83.639H38.4135V83.5668H38.269V83.4946H38.1246V83.4224H37.9802V83.3501H37.908V83.2779H37.7636V83.2057H37.6192V83.1335H37.4748V83.0613H37.4026V82.9891H37.3304V82.9169H37.2582V82.8447H37.186V82.7725H37.1138V82.7003H36.9693V82.6281H36.8971V82.5559H36.8249V82.4837H36.7527V82.4115H36.6805V82.2671H36.6083V82.1949H36.5361V82.1227H36.4639V81.9782H36.3917V81.906H36.3195V81.8338H36.2473V81.6894H36.1751V81.6172H36.1029V81.4728H36.0307V81.3284H35.9585V81.1118H35.8862V80.9674H35.814V80.8229H35.7418V80.6785H35.6696V80.4619H35.5974V80.1731H35.5252V79.8121H35.453V79.5232H35.3808V79.09H35.3086V78.368H35.2364V70.3531H38.0524V78.729H38.1246V79.09H38.1968V79.3788H38.269V79.5232H38.3412V79.7399H38.4135V79.8843H38.4857V80.0287H38.5579V80.1731H38.6301V80.2453H38.7023V80.3897H38.7745V80.4619H38.8467V80.5341H38.9189V80.6063H38.9911V80.6785H39.0633V80.7507H39.1355V80.8229H39.2077V80.8952H39.3521V80.9674H39.4965V81.0396H39.5687V81.1118H39.7854V81.184H40.002V81.2562H40.2186V81.3284H41.2295V81.2562H41.4461V81.184H41.6627V81.1118H41.8793V81.0396H42.0237V80.9674H42.0959V80.8952H42.2404V80.8229H42.3126V80.7507H42.3848V80.6785H42.457V80.6063H42.5292V80.5341H42.6014V80.4619H42.6736V80.3897H42.7458V80.3175H42.818V80.1731H42.8902V80.0287H42.9624V79.9565H43.0346V79.8121H43.1068V79.5954H43.179V79.3788H43.2512V79.1622H43.3234V78.8012H43.3956V78.2235H43.4679V70.3531H46.2117V78.4402H46.1395V79.2344H46.0673V79.5954H45.9951V79.8843H45.9228V80.2453H45.8506V80.5341H45.7784V80.6785H45.7062V80.8952H45.634V81.0396H45.5618V81.184H45.4896V81.4006H45.4174V81.545H45.3452V81.6172H45.273V81.7616H45.2008V81.8338H45.1286V81.9782H45.0564V82.0504H44.9842V82.1227H44.912V82.2671H44.8398V82.3393H44.7676V82.4837H44.6231V82.5559H44.5509V82.6281H44.4787V82.7003H44.4065V82.7725H44.3343V82.8447H44.2621V82.9169H44.1899V82.9891H44.1177V83.0613H43.9733V83.1335H43.9011V83.2057H43.7567V83.2779H43.6123V83.3501H43.4679V83.4224H43.3234V83.4946H43.2512V83.5668H43.1068V83.639H42.8902V83.7112H42.6014V83.7834H42.3848V83.8556H42.0959V83.9278H41.6627V84H39.7854ZM82.0257 84V83.9278H81.5203V83.8556H81.3037V83.7834H81.087V83.7112H80.8704V83.639H80.6538V83.5668H80.4372V83.4946H80.2928V83.4224H80.2206V83.3501H80.0762V83.2779H79.9317V83.2057H79.7873V83.1335H79.7151V83.0613H79.5707V82.9891H79.4263V82.9169H79.3541V82.8447H79.2819V82.7725H79.2097V82.7003H79.1375V82.6281H79.0653V82.5559H78.9931V82.4837H78.9209V82.4115H78.8487V82.3393H78.7765V82.2671H78.7043V82.1949H78.632V82.1227H78.5598V82.0504H78.4876V81.906H78.4154V81.8338H78.3432V81.6894H78.271V81.6172H78.1988V81.4728H78.1266V81.4006H78.0544V81.2562H77.9822V81.184H77.91V81.0396H77.8378V80.8952H77.7656V80.6785H77.6934V80.5341H77.6212V80.3897H77.549V80.1731H77.4768V80.0287H77.4045V79.7399H77.3323V79.451H77.2601V79.09H77.1879V78.8012H77.1157V78.2957H77.0435V77.5015H76.9713V76.7072H77.0435V75.9852H77.1157V75.4797H77.1879V75.1187H77.2601V74.8299H77.3323V74.541H77.4045V74.2522H77.4768V74.1078H77.549V73.9634H77.6212V73.7468H77.6934V73.6024H77.7656V73.458H77.8378V73.3135H77.91V73.0969H77.9822V73.0247H78.0544V72.8803H78.1266V72.8081H78.1988V72.6637H78.271V72.5915H78.3432V72.4471H78.4154V72.3749H78.4876V72.3027H78.5598V72.1583H78.632V72.0861H78.7043V72.0138H78.7765V71.9416H78.8487V71.8694H78.9209V71.7972H78.9931V71.725H79.0653V71.6528H79.1375V71.5806H79.2097V71.5084H79.2819V71.4362H79.3541V71.364H79.4263V71.2918H79.4985V71.2196H79.6429V71.1474H79.7873V71.0752H79.8595V71.003H80.004V70.9308H80.1484V70.8586H80.2928V70.7863H80.365V70.7141H80.5094V70.6419H80.6538V70.5697H80.8704V70.4975H81.087V70.4253H81.3037V70.3531H81.5203V70.2809H81.8813V70.2087H82.3867V70.1365H83.6142V70.2087H84.1919V70.2809H84.5529V70.3531H84.8417V70.4253H85.0584V70.4975H85.2028V70.5697H85.4194V70.6419H85.5638V70.7141H85.7082V70.7863H85.8526V70.8586H85.997V70.9308H86.1414V71.003H86.2137V71.0752H86.2859V71.1474H86.3581V71.2196H86.5025V71.2918H86.5747V71.364H86.6469V71.4362H86.7191V71.5084H86.7913V71.5806H86.8635V71.6528H86.9357V71.725H87.0079V71.7972H87.0801V71.8694H87.1523V71.9416H87.2245V72.0138H87.2967V72.1583H87.3689V72.2305H87.4411V72.3027H87.5134V72.4471H87.5856V72.5193H87.6578V72.6637H87.73V72.8081H87.8022V72.8803H87.8744V73.0247H87.9466V73.1691H87.8744V73.2413H87.73V73.3135H87.5856V73.3858H87.4411V73.458H87.2245V73.5302H87.0801V73.6024H86.9357V73.6746H86.7913V73.7468H86.6469V73.819H86.5025V73.8912H86.2859V73.9634H86.1414V74.0356H85.997V74.1078H85.8526V74.18H85.7082V74.2522H85.5638V74.3244H85.3472V74.18H85.275V74.1078H85.2028V74.0356H85.1306V73.8912H85.0584V73.819H84.9862V73.6746H84.8417V73.6024H84.7695V73.5302H84.6973V73.458H84.6251V73.3858H84.5529V73.3135H84.4085V73.2413H84.2641V73.1691H84.1197V73.0969H83.9753V73.0247H83.7587V72.9525H83.3976V72.8803H82.5312V72.9525H82.1701V73.0247H82.0257V73.0969H81.8091V73.1691H81.6647V73.2413H81.5203V73.3135H81.4481V73.3858H81.3037V73.458H81.2315V73.5302H81.087V73.6024H81.0148V73.7468H80.9426V73.819H80.8704V73.8912H80.7982V73.9634H80.726V74.0356H80.6538V74.1078H80.5816V74.2522H80.5094V74.3966H80.4372V74.541H80.365V74.6133H80.2928V74.8299H80.2206V75.0465H80.1484V75.1909H80.0762V75.4075H80.004V75.8408H79.9317V76.2018H79.8595V77.9347H79.9317V78.368H80.004V78.729H80.0762V78.9456H80.1484V79.09H80.2206V79.3066H80.2928V79.5232H80.365V79.5954H80.4372V79.7399H80.5094V79.8843H80.5816V79.9565H80.6538V80.1009H80.726V80.1731H80.7982V80.2453H80.8704V80.3175H80.9426V80.4619H81.0148V80.5341H81.087V80.6063H81.1592V80.6785H81.3037V80.7507H81.3759V80.8229H81.5203V80.8952H81.5925V80.9674H81.7369V81.0396H81.9535V81.1118H82.0979V81.184H82.3145V81.2562H82.7478V81.3284H83.181V81.2562H83.6864V81.184H83.9031V81.1118H84.0475V81.0396H84.1919V80.9674H84.3363V80.8952H84.4807V80.8229H84.5529V80.7507H84.6251V80.6785H84.6973V80.6063H84.7695V80.5341H84.9139V80.4619H84.9862V80.3897H85.0584V80.2453H85.1306V80.1731H85.2028V80.1009H85.275V79.9565H85.3472V79.8843H85.4194V79.8121H85.4916V79.6677H85.5638V79.5954H85.7082V79.6677H85.7804V79.7399H85.9248V79.8121H86.0692V79.8843H86.2137V79.9565H86.2859V80.0287H86.4303V80.1009H86.5747V80.1731H86.6469V80.2453H86.7913V80.3175H86.9357V80.3897H87.0079V80.4619H87.1523V80.5341H87.2967V80.6063H87.3689V80.6785H87.5134V80.7507H87.6578V80.8229H87.73V80.8952H87.8744V81.1118H87.8022V81.2562H87.73V81.4006H87.6578V81.545H87.5856V81.6172H87.5134V81.7616H87.4411V81.8338H87.3689V81.906H87.2967V82.0504H87.2245V82.1227H87.1523V82.1949H87.0801V82.3393H87.0079V82.4115H86.9357V82.4837H86.8635V82.5559H86.7913V82.6281H86.7191V82.7003H86.6469V82.7725H86.5747V82.8447H86.4303V82.9169H86.3581V82.9891H86.2859V83.0613H86.1414V83.1335H86.0692V83.2057H85.997V83.2779H85.8526V83.3501H85.7082V83.4224H85.5638V83.4946H85.4194V83.5668H85.275V83.639H85.0584V83.7112H84.8417V83.7834H84.6251V83.8556H84.2641V83.9278H83.9031V84H82.0257ZM104.409 84V83.9278H103.976V83.8556H103.76V83.7834H103.543V83.7112H103.326V83.639H103.038V83.5668H102.821V83.4946H102.749V83.4224H102.604V83.3501H102.46V83.2779H102.388V83.2057H102.243V83.1335H102.171V83.0613H102.027V82.9891H101.882V82.9169H101.81V82.8447H101.738V82.7725H101.666V82.7003H101.593V82.6281H101.521V82.5559H101.449V82.4837H101.377V82.4115H101.305V82.3393H101.232V82.2671H101.16V82.1949H101.088V82.1227H101.016V82.0504H100.944V81.906H100.871V81.8338H100.799V81.6894H100.727V81.6172H100.655V81.4728H100.583V81.4006H100.51V81.2562H100.438V81.184H100.366V81.0396H100.294V80.8229H100.222V80.6785H100.149V80.5341H100.077V80.3175H100.005V80.1731H99.9327V79.9565H99.8605V79.6677H99.7883V79.3788H99.7161V79.0178H99.6439V78.729H99.5717V78.0791H99.4995V76.0574H99.5717V75.4797H99.6439V75.1187H99.7161V74.8299H99.7883V74.4688H99.8605V74.18H99.9327V74.0356H100.005V73.819H100.077V73.6746H100.149V73.5302H100.222V73.3135H100.294V73.1691H100.366V73.0247H100.438V72.8803H100.51V72.8081H100.583V72.6637H100.655V72.5915H100.727V72.4471H100.799V72.3749H100.871V72.2305H100.944V72.1583H101.016V72.0138H101.088V71.9416H101.16V71.8694H101.232V71.7972H101.305V71.725H101.377V71.6528H101.449V71.5806H101.521V71.5084H101.593V71.4362H101.666V71.364H101.81V71.2918H101.882V71.2196H101.954V71.1474H102.099V71.0752H102.171V71.003H102.316V70.9308H102.46V70.8586H102.532V70.7863H102.677V70.7141H102.821V70.6419H102.965V70.5697H103.182V70.4975H103.399V70.4253H103.615V70.3531H103.832V70.2809H104.193V70.2087H104.698V70.1365H105.926V70.2087H106.503V70.2809H106.792V70.3531H107.009V70.4253H107.226V70.4975H107.514V70.5697H107.731V70.6419H107.875V70.7141H108.02V70.7863H108.092V70.8586H108.236V70.9308H108.381V71.003H108.453V71.0752H108.597V71.1474H108.742V71.2196H108.814V71.2918H108.886V71.364H108.958V71.4362H109.031V71.5084H109.103V71.5806H109.175V71.6528H109.247V71.725H109.319V71.7972H109.392V71.8694H109.464V71.9416H109.536V72.0138H109.608V72.0861H109.681V72.1583H109.753V72.3027H109.825V72.3749H109.897V72.5193H109.969V72.5915H110.042V72.7359H110.114V72.8081H110.186V72.9525H110.258V73.0247H110.33V73.1691H110.403V73.3858H110.475V73.5302H110.547V73.7468H110.619V73.8912H110.691V74.1078H110.764V74.2522H110.836V74.541H110.908V74.9021H110.98V75.2631H111.052V75.5519H111.125V76.274H111.197V77.8625H111.125V78.6568H111.052V78.9456H110.98V79.3066H110.908V79.5954H110.836V79.9565H110.764V80.1009H110.691V80.2453H110.619V80.4619H110.547V80.6063H110.475V80.8229H110.403V80.9674H110.33V81.1118H110.258V81.2562H110.186V81.3284H110.114V81.4728H110.042V81.545H109.969V81.6894H109.897V81.8338H109.825V81.906H109.753V82.0504H109.681V82.1227H109.608V82.1949H109.536V82.2671H109.464V82.3393H109.392V82.4115H109.319V82.4837H109.247V82.5559H109.175V82.6281H109.103V82.7003H109.031V82.7725H108.958V82.8447H108.886V82.9169H108.814V82.9891H108.67V83.0613H108.525V83.1335H108.453V83.2057H108.309V83.2779H108.164V83.3501H108.092V83.4224H107.948V83.4946H107.803V83.5668H107.587V83.639H107.37V83.7112H107.153V83.7834H106.937V83.8556H106.72V83.9278H106.215V84H104.409ZM118.273 84V83.9278H117.84V83.8556H117.623V83.7834H117.334V83.7112H117.118V83.639H116.901V83.5668H116.757V83.4946H116.612V83.4224H116.54V83.3501H116.396V83.2779H116.251V83.2057H116.107V83.1335H116.035V83.0613H115.89V82.9891H115.818V82.9169H115.746V82.8447H115.674V82.7725H115.601V82.7003H115.529V82.6281H115.385V82.5559H115.313V82.4837H115.24V82.4115H115.168V82.2671H115.096V82.1949H115.024V82.0504H114.952V81.9782H114.879V81.906H114.807V81.7616H114.735V81.6894H114.663V81.6172H114.591V81.4006H114.518V81.2562H114.446V81.1118H114.374V80.9674H114.302V80.8229H114.229V80.6063H114.157V80.3897H114.085V80.1009H114.013V79.8121H113.941V79.5232H113.868V78.9456H113.796V70.3531H116.54V78.6568H116.612V79.0178H116.684V79.3066H116.757V79.5232H116.829V79.7399H116.901V79.8843H116.973V80.0287H117.046V80.1009H117.118V80.2453H117.19V80.3897H117.262V80.4619H117.334V80.5341H117.407V80.6063H117.479V80.6785H117.551V80.7507H117.623V80.8229H117.768V80.8952H117.84V80.9674H117.984V81.0396H118.056V81.1118H118.273V81.184H118.49V81.2562H118.706V81.3284H119.717V81.2562H120.006V81.184H120.223V81.1118H120.367V81.0396H120.511V80.9674H120.584V80.8952H120.728V80.8229H120.8V80.7507H120.872V80.6785H120.945V80.6063H121.017V80.5341H121.089V80.4619H121.161V80.3897H121.233V80.3175H121.306V80.1731H121.378V80.1009H121.45V79.9565H121.522V79.8121H121.594V79.5954H121.667V79.451H121.739V79.2344H121.811V78.8734H121.883V78.2957H121.955V70.3531H124.699V78.5846H124.627V79.3066H124.555V79.6677H124.483V79.9565H124.41V80.3175H124.338V80.5341H124.266V80.7507H124.194V80.8952H124.122V81.0396H124.049V81.2562H123.977V81.4006H123.905V81.545H123.833V81.6894H123.761V81.7616H123.688V81.8338H123.616V81.9782H123.544V82.0504H123.472V82.1949H123.4V82.2671H123.327V82.4115H123.255V82.4837H123.183V82.5559H123.039V82.6281H122.966V82.7003H122.894V82.7725H122.822V82.8447H122.75V82.9169H122.678V82.9891H122.605V83.0613H122.533V83.1335H122.389V83.2057H122.244V83.2779H122.1V83.3501H121.955V83.4224H121.883V83.4946H121.739V83.5668H121.594V83.639H121.378V83.7112H121.089V83.7834H120.872V83.8556H120.584V83.9278H120.223V84H118.273ZM49.4609 83.8556V70.3531H52.1325V70.4253H52.2047V70.5697H52.277V70.6419H52.3492V70.7863H52.4214V70.8586H52.4936V71.003H52.5658V71.0752H52.638V71.2196H52.7102V71.2918H52.7824V71.4362H52.8546V71.5084H52.9268V71.6528H52.999V71.725H53.0712V71.8694H53.1434V71.9416H53.2156V72.0861H53.2878V72.1583H53.36V72.3027H53.4322V72.3749H53.5045V72.5193H53.5767V72.5915H53.6489V72.6637H53.7211V72.8081H53.7933V72.8803H53.8655V73.0247H53.9377V73.0969H54.0099V73.2413H54.0821V73.3135H54.1543V73.458H54.2265V73.5302H54.2987V73.6746H54.3709V73.7468H54.4431V73.8912H54.5153V73.9634H54.5875V74.1078H54.6597V74.18H54.7319V74.3244H54.8042V74.3966H54.8764V74.541H54.9486V74.6133H55.0208V74.7577H55.093V74.8299H55.1652V74.9743H55.2374V75.0465H55.3096V75.1909H55.3818V75.2631H55.454V75.4075H55.5262V75.4797H55.5984V75.6241H55.6706V75.6963H55.7428V75.8408H55.815V75.913H55.8872V76.0574H55.9594V76.1296H56.0317V76.274H56.1039V76.3462H56.1761V76.4906H56.2483V76.5628H56.3205V76.7072H56.3927V76.7794H56.4649V76.9238H56.5371V76.996H56.6093V77.1405H56.6815V77.2127H56.7537V77.3571H56.8259V77.4293H56.8981V77.5737H56.9703V77.6459H57.0425V77.7903H57.1147V77.8625H57.1869V78.0069H57.2592V78.0791H57.3314V78.2235H57.4036V78.368H57.4758V78.4402H57.548V78.5846H57.6202V78.729H57.6924V70.3531H60.4362V83.8556H57.909V83.7112H57.8368V83.639H57.7646V83.4946H57.6924V83.4224H57.6202V83.2779H57.548V83.2057H57.4758V83.0613H57.4036V82.9891H57.3314V82.8447H57.2592V82.7725H57.1869V82.6281H57.1147V82.5559H57.0425V82.4115H56.9703V82.3393H56.8981V82.2671H56.8259V82.1227H56.7537V82.0504H56.6815V81.906H56.6093V81.8338H56.5371V81.6894H56.4649V81.6172H56.3927V81.4728H56.3205V81.4006H56.2483V81.2562H56.1761V81.184H56.1039V81.0396H56.0317V80.9674H55.9594V80.8229H55.8872V80.7507H55.815V80.6063H55.7428V80.5341H55.6706V80.3897H55.5984V80.3175H55.5262V80.1731H55.454V80.1009H55.3818V79.9565H55.3096V79.8843H55.2374V79.7399H55.1652V79.6677H55.093V79.5232H55.0208V79.451H54.9486V79.3066H54.8764V79.2344H54.8042V79.09H54.7319V79.0178H54.6597V78.8734H54.5875V78.8012H54.5153V78.6568H54.4431V78.5846H54.3709V78.4402H54.2987V78.368H54.2265V78.2957H54.1543V78.1513H54.0821V78.0791H54.0099V77.9347H53.9377V77.8625H53.8655V77.7181H53.7933V77.6459H53.7211V77.5015H53.6489V77.4293H53.5767V77.2849H53.5045V77.2127H53.4322V77.0682H53.36V76.996H53.2878V76.8516H53.2156V76.7794H53.1434V76.635H53.0712V76.5628H52.999V76.4184H52.9268V76.3462H52.8546V76.2018H52.7824V76.1296H52.7102V75.9852H52.638V75.8408H52.5658V75.7685H52.4936V75.6241H52.4214V75.5519H52.3492V75.4075H52.277V75.2631H52.2047V75.1909H52.1325V76.3462H52.2047V83.8556H49.4609ZM63.7577 83.8556V70.3531H68.8843V70.4253H69.5341V70.4975H69.8952V70.5697H70.2562V70.6419H70.545V70.7141H70.8338V70.7863H70.9782V70.8586H71.1227V70.9308H71.3393V71.003H71.4837V71.0752H71.7003V71.1474H71.8447V71.2196H71.9169V71.2918H72.0613V71.364H72.1335V71.4362H72.2779V71.5084H72.3502V71.5806H72.4224V71.6528H72.5668V71.725H72.639V71.7972H72.7834V71.8694H72.8556V71.9416H72.9278V72.0138H73V72.1583H73.0722V72.2305H73.1444V72.3027H73.2166V72.3749H73.2888V72.4471H73.361V72.5193H73.4332V72.5915H73.5054V72.7359H73.5776V72.8081H73.6498V72.9525H73.7221V73.0969H73.7943V73.2413H73.8665V73.3858H73.9387V73.5302H74.0109V73.6024H74.0831V73.7468H74.1553V73.8912H74.2275V74.18H74.2997V74.4688H74.3719V74.7577H74.4441V74.9743H74.5163V75.2631H74.5885V75.8408H74.6607V76.5628H74.7329V77.5737H74.6607V78.1513H74.5885V78.729H74.5163V79.0178H74.4441V79.2344H74.3719V79.451H74.2997V79.6677H74.2275V79.8843H74.1553V80.1731H74.0831V80.2453H74.0109V80.3897H73.9387V80.5341H73.8665V80.6785H73.7943V80.7507H73.7221V80.8952H73.6498V81.0396H73.5776V81.1118H73.5054V81.2562H73.4332V81.3284H73.361V81.4728H73.2888V81.545H73.2166V81.6172H73.1444V81.6894H73.0722V81.7616H73V81.8338H72.9278V81.906H72.8556V81.9782H72.7834V82.0504H72.7112V82.1227H72.639V82.1949H72.5668V82.2671H72.4946V82.3393H72.3502V82.4115H72.2779V82.4837H72.1335V82.5559H72.0613V82.6281H71.9169V82.7003H71.8447V82.7725H71.7003V82.8447H71.6281V82.9169H71.4837V82.9891H71.3393V83.0613H71.1949V83.1335H70.9782V83.2057H70.8338V83.2779H70.6894V83.3501H70.4728V83.4224H70.3284V83.4946H69.9674V83.5668H69.6785V83.639H69.3897V83.7112H68.9565V83.7834H68.2344V83.8556H63.7577ZM90.185 83.8556V70.3531H92.9288V81.1118H98.3442V83.8556H90.185ZM127.949 83.8556V70.3531H133.075V70.4253H133.725V70.4975H134.086V70.5697H134.447V70.6419H134.736V70.7141H135.025V70.7863H135.169V70.8586H135.314V70.9308H135.53V71.003H135.675V71.0752H135.891V71.1474H136.036V71.2196H136.108V71.2918H136.252V71.364H136.324V71.4362H136.469V71.5084H136.541V71.5806H136.685V71.6528H136.758V71.725H136.83V71.7972H136.974V71.8694H137.046V71.9416H137.119V72.0138H137.191V72.0861H137.263V72.2305H137.335V72.3027H137.408V72.3749H137.48V72.4471H137.552V72.5193H137.624V72.5915H137.696V72.6637H137.769V72.8081H137.841V72.9525H137.913V73.0969H137.985V73.1691H138.057V73.3135H138.13V73.458H138.202V73.6024H138.274V73.7468H138.346V73.8912H138.418V74.18H138.491V74.3966H138.563V74.6855H138.635V74.9743H138.707V75.2631H138.779V75.7685H138.852V76.4906H138.924V77.6459H138.852V78.2235H138.779V78.8012H138.707V79.0178H138.635V79.2344H138.563V79.451H138.491V79.7399H138.418V79.9565H138.346V80.1731H138.274V80.3175H138.202V80.3897H138.13V80.5341H138.057V80.6785H137.985V80.7507H137.913V80.8952H137.841V81.0396H137.769V81.184H137.696V81.2562H137.624V81.4006H137.552V81.4728H137.48V81.545H137.408V81.6172H137.335V81.6894H137.263V81.7616H137.191V81.8338H137.119V81.906H137.046V81.9782H136.974V82.0504H136.902V82.1227H136.83V82.1949H136.758V82.2671H136.685V82.3393H136.541V82.4115H136.469V82.4837H136.324V82.5559H136.252V82.6281H136.18V82.7003H136.036V82.7725H135.963V82.8447H135.819V82.9169H135.747V82.9891H135.53V83.0613H135.386V83.1335H135.241V83.2057H135.025V83.2779H134.88V83.3501H134.736V83.4224H134.519V83.4946H134.158V83.5668H133.869V83.639H133.581V83.7112H133.147V83.7834H132.425V83.8556H127.949ZM26.6439 81.2562V81.3284H27.0772V81.2562H27.5104V81.184H27.727V81.1118H27.9436V81.0396H28.088V80.9674H28.2324V80.8952H28.3769V80.8229H28.4491V80.7507H28.5213V80.6785H28.6657V80.6063H28.7379V80.5341H28.8101V80.4619H28.8823V80.3175H28.9545V80.2453H29.0267V80.1731H29.0989V80.1009H29.1711V79.9565H29.2433V79.8121H29.3155V79.6677H29.3877V79.5232H29.4599V79.3788H29.5321V79.1622H29.6044V78.8734H29.6766V78.5846H29.7488V78.1513H29.821V77.4293H29.8932V76.7794H29.821V75.9852H29.7488V75.5519H29.6766V75.2631H29.6044V75.0465H29.5321V74.8299H29.4599V74.6133H29.3877V74.4688H29.3155V74.3966H29.2433V74.2522H29.1711V74.1078H29.0989V74.0356H29.0267V73.8912H28.9545V73.819H28.8823V73.7468H28.8101V73.6746H28.7379V73.6024H28.6657V73.5302H28.5935V73.458H28.5213V73.3858H28.3769V73.3135H28.3046V73.2413H28.2324V73.1691H28.0158V73.0969H27.7992V73.0247H27.6548V72.9525H27.2938V72.8803H26.4273V72.9525H26.0663V73.0247H25.8497V73.0969H25.633V73.1691H25.4886V73.2413H25.3442V73.3135H25.272V73.3858H25.1998V73.458H25.0554V73.5302H24.9832V73.6024H24.911V73.6746H24.8388V73.7468H24.7666V73.8912H24.6944V73.9634H24.6222V74.0356H24.55V74.1078H24.4777V74.2522H24.4055V74.3966H24.3333V74.541H24.2611V74.6855H24.1889V74.9021H24.1167V75.1187H24.0445V75.4075H23.9723V75.7685H23.9001V76.2018H23.8279V78.0069H23.9001V78.4402H23.9723V78.8012H24.0445V79.0178H24.1167V79.2344H24.1889V79.451H24.2611V79.5954H24.3333V79.7399H24.4055V79.8843H24.4777V80.0287H24.55V80.1731H24.6222V80.2453H24.6944V80.3175H24.7666V80.3897H24.8388V80.4619H24.911V80.6063H25.0554V80.6785H25.1276V80.7507H25.1998V80.8229H25.3442V80.8952H25.4164V80.9674H25.5608V81.0396H25.7774V81.1118H25.9219V81.184H26.1385V81.2562H26.6439ZM105.132 81.2562V81.3284H105.565V81.2562H106.07V81.184H106.215V81.1118H106.431V81.0396H106.648V80.9674H106.72V80.8952H106.864V80.8229H106.937V80.7507H107.081V80.6785H107.153V80.6063H107.226V80.5341H107.298V80.4619H107.37V80.3897H107.442V80.2453H107.514V80.1731H107.587V80.1009H107.659V79.9565H107.731V79.8121H107.803V79.6677H107.875V79.5232H107.948V79.3788H108.02V79.1622H108.092V78.9456H108.164V78.6568H108.236V78.2235H108.309V77.5737H108.381V76.635H108.309V75.9852H108.236V75.5519H108.164V75.2631H108.092V75.0465H108.02V74.7577H107.948V74.6133H107.875V74.4688H107.803V74.3244H107.731V74.18H107.659V74.1078H107.587V73.9634H107.514V73.8912H107.442V73.819H107.37V73.7468H107.298V73.6024H107.226V73.5302H107.081V73.458H107.009V73.3858H106.864V73.3135H106.792V73.2413H106.72V73.1691H106.503V73.0969H106.287V73.0247H106.142V72.9525H105.781V72.8803H104.915V72.9525H104.554V73.0247H104.337V73.0969H104.193V73.1691H103.976V73.2413H103.904V73.3135H103.76V73.3858H103.687V73.458H103.615V73.5302H103.471V73.6024H103.399V73.6746H103.326V73.819H103.254V73.8912H103.182V73.9634H103.11V74.0356H103.038V74.18H102.965V74.3244H102.893V74.4688H102.821V74.6133H102.749V74.6855H102.677V74.9743H102.604V75.1909H102.532V75.4075H102.46V75.8408H102.388V76.274H102.316V77.9347H102.388V78.368H102.46V78.729H102.532V79.0178H102.604V79.2344H102.677V79.451H102.749V79.5954H102.821V79.7399H102.893V79.8843H102.965V80.0287H103.038V80.1009H103.11V80.2453H103.182V80.3175H103.254V80.3897H103.326V80.4619H103.399V80.5341H103.471V80.6063H103.543V80.6785H103.615V80.7507H103.76V80.8229H103.832V80.8952H103.904V80.9674H104.048V81.0396H104.265V81.1118H104.409V81.184H104.626V81.2562H105.132ZM66.5015 81.1118V81.184H68.09V81.1118H68.7399V81.0396H69.0287V80.9674H69.3175V80.8952H69.6063V80.8229H69.7507V80.7507H69.8952V80.6785H70.0396V80.6063H70.184V80.5341H70.3284V80.4619H70.4006V80.3897H70.4728V80.3175H70.545V80.2453H70.6894V80.1731H70.7616V80.1009H70.8338V80.0287H70.906V79.9565H70.9782V79.8121H71.0504V79.7399H71.1227V79.6677H71.1949V79.5232H71.2671V79.451H71.3393V79.3066H71.4115V79.1622H71.4837V78.9456H71.5559V78.8012H71.6281V78.5846H71.7003V78.2957H71.7725V77.9347H71.8447V76.1296H71.7725V75.7685H71.7003V75.4075H71.6281V75.1909H71.5559V75.0465H71.4837V74.8299H71.4115V74.6855H71.3393V74.541H71.2671V74.4688H71.1949V74.3244H71.1227V74.2522H71.0504V74.18H70.9782V74.0356H70.906V73.9634H70.7616V73.8912H70.6894V73.819H70.6172V73.7468H70.545V73.6746H70.4006V73.6024H70.3284V73.5302H70.184V73.458H69.9674V73.3858H69.8229V73.3135H69.6785V73.2413H69.3897V73.1691H69.0287V73.0969H68.5232V73.0247H66.5015V81.1118ZM130.692 81.1118V81.184H132.281V81.1118H132.931V81.0396H133.22V80.9674H133.508V80.8952H133.797V80.8229H133.942V80.7507H134.086V80.6785H134.23V80.6063H134.375V80.5341H134.519V80.4619H134.591V80.3897H134.664V80.3175H134.736V80.2453H134.88V80.1731H134.953V80.1009H135.025V80.0287H135.097V79.9565H135.169V79.8121H135.241V79.7399H135.314V79.6677H135.386V79.5232H135.458V79.451H135.53V79.3066H135.602V79.1622H135.675V79.0178H135.747V78.8012H135.819V78.5846H135.891V78.2957H135.963V78.0069H136.036V76.0574H135.963V75.7685H135.891V75.4075H135.819V75.1909H135.747V74.9743H135.675V74.8299H135.602V74.6855H135.53V74.541H135.458V74.4688H135.386V74.3244H135.314V74.2522H135.241V74.18H135.169V74.0356H135.097V73.9634H134.953V73.8912H134.88V73.819H134.808V73.7468H134.736V73.6746H134.591V73.6024H134.519V73.5302H134.375V73.458H134.158V73.3858H134.014V73.3135H133.869V73.2413H133.581V73.1691H133.22V73.0969H132.714V73.0247H130.692V81.1118ZM78.1988 64.2156V64.1434H77.8378V64.0712H77.6934V63.999H77.4768V63.9268H77.4045V63.8546H77.2601V63.7824H77.1879V63.7102H77.0435V63.638H76.9713V63.5658H76.8991V63.4936H76.8269V63.3492H76.7547V63.277H76.6825V63.2047H76.6103V63.0603H76.5381V62.9159H76.4659V62.6993H76.3937V62.4827H76.3215V4.50147H76.3937V4.21265H76.4659V4.06824H76.5381V3.92383H76.6103V3.77942H76.6825V3.70721H76.7547V3.63501H76.8269V3.5628H76.8991V3.49059H76.9713V3.41839H77.0435V3.34618H77.1157V3.27398H77.2601V3.20177H77.4045V3.12956H77.549V3.05736H77.6934V2.98515H77.8378V2.91295H77.9822V2.84074H78.1988V2.76854H78.4154V2.69633H78.5598V2.62412H78.7765V2.55192H78.9931V2.47971H79.2097V2.40751H79.4263V2.3353H79.6429V2.2631H79.9317V2.1909H80.1484V2.11868H80.365V2.04648H80.5816V1.97427H80.8704V1.90207H81.1592V1.82986H81.4481V1.75766H81.7369V1.68545H82.0257V1.61324H82.3867V1.54104H82.6756V1.46883H82.9644V1.39663H83.2532V1.32442H83.542V1.25222H84.0475V1.18001H84.5529V1.1078H85.0584V1.0356H85.5638V0.963394H86.0692V0.89119H86.7191V0.818985H87.8022V0.746773H91.4847V0.818985H92.4956V0.89119H93.1454V0.963394H93.723V1.0356H94.3007V1.1078H94.7339V1.18001H95.1672V1.25222H95.6004V1.32442H95.9614V1.39663H96.2502V1.46883H96.6113V1.54104H96.9001V1.61324H97.2611V1.68545H97.4777V1.75766H97.7666V1.82986H98.0554V1.90207H98.272V1.97427H98.5608V2.04648H98.7775V2.11868H98.9941V2.1909H99.2107V2.2631H99.4995V2.3353H99.7161V2.40751H99.9327V2.47971H100.149V2.55192H100.294V2.62412H100.51V2.69633H100.727V2.76854H100.871V2.84074H101.088V2.91295H101.305V2.98515H101.449V3.05736H101.593V3.12956H101.81V3.20177H101.954V3.27398H102.171V3.34618H102.316V3.41839H102.46V3.49059H102.677V3.5628H102.821V3.63501H102.965V3.70721H103.11V3.77942H103.254V3.85162H103.399V3.92383H103.543V3.99603H103.687V4.06824H103.832V4.14045H103.976V4.21265H104.121V4.28486H104.265V4.35706H104.409V4.42927H104.554V4.50147H104.698V4.57368H104.771V4.64589H104.915V4.71809H105.059V4.7903H105.204V4.8625H105.348V4.93471H105.42V5.00691H105.565V5.07912H105.709V5.15133H105.781V5.22353H105.926V5.29574H106.07V5.36794H106.142V5.44015H106.287V5.51235H106.431V5.58456H106.503V5.65677H106.648V5.72897H106.72V5.80118H106.864V5.87338H106.937V5.94559H107.081V6.0178H107.153V6.09H107.298V6.16221H107.37V6.23441H107.514V6.30662H107.587V6.37882H107.731V6.45103H107.803V6.52324H107.948V6.59544H108.02V6.66765H108.092V6.73985H108.236V6.81206H108.309V6.88426H108.381V6.95647H108.525V7.02868H108.597V7.10088H108.67V7.17309H108.814V7.24529H108.886V7.3175H108.958V7.3897H109.103V7.46191H109.175V7.53412H109.247V7.60632H109.319V7.67853H109.464V7.75073H109.536V7.82294H109.608V7.89514H109.681V7.96735H109.825V8.03956H109.897V8.11176H109.969V8.18397H110.042V8.25617H110.114V8.32838H110.186V8.40059H110.33V8.47279H110.403V8.545H110.475V8.6172H110.547V8.68941H110.619V8.76161H110.691V8.83382H110.764V8.90603H110.908V8.97823H110.98V9.05044H111.052V9.12264H111.125V9.19485H111.197V9.26705H111.269V9.33926H111.341V9.41147H111.413V9.48367H111.486V9.55588H111.558V9.62808H111.63V9.70029H111.702V9.77249H111.774V9.8447H111.847V9.91691H111.919V9.98911H111.991V10.0613H112.063V10.1335H112.136V10.2057H112.208V10.2779H112.28V10.3501H112.352V10.4223H112.424V10.4946H112.497V10.5668H112.569V10.639H112.641V10.7112H112.713V10.7834H112.785V10.8556H112.858V10.9278H112.93V11H113.002V11.0722H113.074V11.1444H113.146V11.2888H113.219V11.361H113.291V11.4332H113.363V11.5054H113.435V11.5776H113.507V11.6498H113.58V11.7943H113.652V11.8665H113.724V11.9387H113.796V12.0109H113.868V12.0831H113.941V12.1553H114.013V12.2997H114.085V12.3719H114.157V12.4441H114.229V12.5163H114.302V12.6607H114.374V12.7329H114.446V12.8051H114.518V12.8773H114.591V13.0218H114.663V13.094H114.735V13.1662H114.807V13.2384H114.879V13.3828H114.952V13.455H115.024V13.5994H115.096V13.6716H115.168V13.7438H115.24V13.8882H115.313V13.9604H115.385V14.1048H115.457V14.177H115.529V14.2493H115.601V14.3937H115.674V14.4659H115.746V14.6103H115.818V14.6825H115.89V14.8269H115.962V14.8991H116.035V15.0435H116.107V15.1157H116.179V15.2601H116.251V15.3323H116.323V15.4767H116.396V15.549H116.468V15.6934H116.54V15.7656H116.612V15.91H116.684V16.0544H116.757V16.1988H116.829V16.271H116.901V16.4154H116.973V16.5598H117.046V16.632H117.118V16.7765H117.19V16.9209H117.262V17.0653H117.334V17.1375H117.407V17.2819H117.479V17.4263H117.551V17.5707H117.623V17.7151H117.695V17.8595H117.768V18.004H117.84V18.1484H117.912V18.2928H117.984V18.4372H118.056V18.5816H118.129V18.726H118.201V18.8704H118.273V19.0148H118.345V19.1592H118.417V19.3036H118.49V19.5203H118.562V19.6647H118.634V19.8091H118.706V20.0257H118.778V20.1701H118.851V20.3145H118.923V20.5312H118.995V20.6756H119.067V20.8922H119.139V21.0366H119.212V21.2532H119.284V21.4698H119.356V21.6142H119.428V21.8309H119.5V22.0475H119.573V22.2641H119.645V22.4807H119.717V22.6973H119.789V22.9139H119.862V23.2028H119.934V23.4194H120.006V23.636H120.078V23.9248H120.15V24.1414H120.223V24.4303H120.295V24.7191H120.367V25.0079H120.439V25.2967H120.511V25.6578H120.584V26.0188H120.656V26.3798H120.728V26.7408H120.8V27.1741H120.872V27.6073H120.945V28.0405H121.017V28.6182H121.089V29.268H121.161V29.5569H121.306V29.4847H121.45V29.4125H121.667V29.3403H121.883V29.268H122.1V29.1958H122.317V29.1236H122.533V29.0514H122.678V28.9792H122.966V28.907H123.255V28.8348H123.544V28.7626H123.833V28.6904H124.122V28.6182H124.41V28.546H124.844V28.4738H125.349V28.4016H125.782V28.3294H126.36V28.2572H127.443V28.185H128.671V28.2572H129.754V28.3294H130.331V28.4016H130.837V28.4738H131.27V28.546H131.775V28.6182H131.992V28.6904H132.281V28.7626H132.57V28.8348H132.859V28.907H133.147V28.9792H133.436V29.0514H133.653V29.1236H133.797V29.1958H134.014V29.268H134.23V29.3403H134.447V29.4125H134.591V29.4847H134.808V29.5569H135.025V29.6291H135.169V29.7013H135.314V29.7735H135.458V29.8457H135.602V29.9179H135.747V29.9901H135.963V30.0623H136.108V30.1345H136.252V30.2067H136.397V30.2789H136.541V30.3511H136.685V30.4233H136.83V30.4955H136.902V30.5677H137.046V30.64H137.119V30.7122H137.263V30.7844H137.408V30.8566H137.48V30.9288H137.624V31.001H137.769V31.0732H137.841V31.1454H137.985V31.2176H138.13V31.2898H138.202V31.362H138.274V31.4342H138.418V31.5064H138.491V31.5786H138.563V31.6508H138.707V31.723H138.779V31.7952H138.852V31.8675H138.996V31.9397H139.068V32.0119H139.14V32.0841H139.285V32.1563H139.357V32.2285H139.429V32.3007H139.574V32.3729H139.646V32.4451H139.718V32.5173H139.79V32.5895H139.863V32.6617H139.935V32.7339H140.007V32.8061H140.079V32.8783H140.224V32.9505H140.296V33.0227H140.368V33.095H140.44V33.1672H140.512V33.2394H140.585V33.3116H140.657V33.3838H140.729V33.456H140.801V33.5282H140.873V33.6004H140.946V33.6726H141.018V33.7448H141.09V33.817H141.162V33.8892H141.234V33.9614H141.307V34.0336H141.379V34.178H141.451V34.2502H141.523V34.3224H141.595V34.3947H141.668V34.4669H141.74V34.5391H141.812V34.6113H141.884V34.6835H141.956V34.7557H142.029V34.9001H142.101V34.9723H142.173V35.0445H142.245V35.1889H142.318V35.2611H142.39V35.3333H142.462V35.4777H142.534V35.5499H142.606V35.6222H142.679V35.7666H142.751V35.8388H142.823V35.9832H142.895V36.0554H142.967V36.1276H143.04V36.272H143.112V36.4164H143.184V36.4886H143.256V36.633H143.328V36.7052H143.401V36.8496H143.473V36.9941H143.545V37.0663H143.617V37.2107H143.689V37.3551H143.762V37.4273H143.834V37.5717H143.906V37.7161H143.978V37.8605H144.05V38.0049H144.123V38.1494H144.195V38.2938H144.267V38.4382H144.339V38.5826H144.411V38.727H144.484V38.8714H144.556V39.088H144.628V39.2324H144.7V39.3769H144.773V39.5935H144.845V39.8101H144.917V40.0267H144.989V40.1711H145.061V40.3877H145.134V40.6043H145.206V40.821H145.278V41.0376H145.35V41.3264H145.422V41.6152H145.495V41.9041H145.567V42.1929H145.639V42.4817H145.711V42.8427H145.783V43.3482H145.856V43.7814H145.928V44.2868H146V48.1137H145.928V48.6192H145.856V49.0524H145.783V49.5579H145.711V49.9911H145.639V50.2077H145.567V50.4965H145.495V50.7854H145.422V51.0742H145.35V51.363H145.278V51.6518H145.206V51.7962H145.134V52.0129H145.061V52.2295H144.989V52.4461H144.917V52.5905H144.845V52.8071H144.773V53.0237H144.7V53.2404H144.628V53.3848H144.556V53.5292H144.484V53.6736H144.411V53.818H144.339V53.9624H144.267V54.1068H144.195V54.2512H144.123V54.3956H144.05V54.5401H143.978V54.6845H143.906V54.8289H143.834V54.9733H143.762V55.1177H143.689V55.1899H143.617V55.3343H143.545V55.4787H143.473V55.5509H143.401V55.6953H143.328V55.7676H143.256V55.912H143.184V56.0564H143.112V56.1286H143.04V56.273H142.967V56.3452H142.895V56.4896H142.823V56.5618H142.751V56.634H142.679V56.7784H142.606V56.8506H142.534V56.9228H142.462V57.0673H142.39V57.1395H142.318V57.2117H142.245V57.3561H142.173V57.4283H142.101V57.5005H142.029V57.6449H141.956V57.7171H141.884V57.7893H141.812V57.8615H141.74V57.9337H141.668V58.0059H141.595V58.1503H141.523V58.2225H141.451V58.2948H141.379V58.367H141.307V58.4392H141.234V58.5114H141.162V58.5836H141.09V58.6558H141.018V58.728H140.946V58.8002H140.873V58.9446H140.801V59.0168H140.657V59.089H140.585V59.1612H140.512V59.2334H140.44V59.3056H140.368V59.3778H140.296V59.45H140.224V59.5223H140.151V59.5945H140.079V59.6667H140.007V59.7389H139.863V59.8111H139.79V59.8833H139.718V59.9555H139.646V60.0277H139.574V60.0999H139.501V60.1721H139.429V60.2443H139.285V60.3165H139.213V60.3887H139.14V60.4609H138.996V60.5331H138.924V60.6053H138.779V60.6775H138.707V60.7498H138.635V60.822H138.491V60.8942H138.418V60.9664H138.346V61.0386H138.202V61.1108H138.13V61.183H137.985V61.2552H137.913V61.3274H137.769V61.3996H137.696V61.4718H137.552V61.544H137.408V61.6162H137.335V61.6884H137.191V61.7606H137.046V61.8328H136.974V61.905H136.83V61.9772H136.685V62.0495H136.541V62.1217H136.397V62.1939H136.252V62.2661H136.108V62.3383H135.963V62.4105H135.819V62.4827H135.675V62.5549H135.53V62.6271H135.386V62.6993H135.241V62.7715H135.097V62.8437H134.88V62.9159H134.664V62.9881H134.447V63.0603H134.303V63.1325H134.086V63.2047H133.869V63.277H133.653V63.3492H133.508V63.4214H133.22V63.4936H132.931V63.5658H132.642V63.638H132.353V63.7102H132.137V63.7824H131.848V63.8546H131.414V63.9268H130.981V63.999H130.476V64.0712H130.043V64.1434H129.032V64.2156H78.1988ZM35.9585 64.1434V64.0712H35.6696V63.999H35.5974V63.9268H35.453V63.8546H35.3808V63.7824H35.3086V63.7102H35.2364V63.638H35.1642V63.4936H35.092V63.4214H35.0198V63.1325H34.9476V62.4827H34.8754V61.4718H34.8032V60.3887H34.731V59.3778H34.6588V58.2948H34.5865V57.2839H34.5143V56.2008H34.4421V55.1899H34.3699V54.1068H34.2977V53.0959H34.2255V52.0129H34.1533V51.002H34.0811V49.9189H34.0089V48.908H33.9367V47.8249H33.8645V46.5252H33.9367V44.5035H34.0089V42.4817H34.0811V40.4599H34.1533V38.5104H34.2255V36.4886H34.2977V34.4669H34.3699V32.4451H34.4421V30.4955H34.5143V28.4738H34.5865V26.452H34.6588V24.4303H34.731V22.4085H34.8032V20.4589H34.8754V18.4372H34.9476V17.4263H35.0198V17.2097H35.092V17.1375H35.1642V16.9931H35.2364V16.9209H35.3086V16.8487H35.3808V16.7765H35.453V16.7042H35.5974V16.632H35.6696V16.5598H35.8862V16.4876H36.5361V16.5598H36.7527V16.632H36.8249V16.7042H36.9693V16.7765H37.0415V16.8487H37.1138V16.9209H37.186V16.9931H37.2582V17.1375H37.3304V17.2819H37.4026V17.4985H37.4748V18.6538H37.547V20.4589H37.6192V22.1919H37.6914V23.997H37.7636V25.8022H37.8358V27.5351H37.908V29.3403H37.9802V31.0732H38.0524V32.8783H38.1246V34.6113H38.1968V36.4164H38.269V38.2216H38.3412V39.9545H38.4135V41.7596H38.4857V43.4926H38.5579V45.2977H38.6301V47.1029H38.7023V47.5361H38.6301V48.4748H38.5579V49.4134H38.4857V50.3521H38.4135V51.2908H38.3412V52.2295H38.269V53.0959H38.1968V54.0346H38.1246V54.9733H38.0524V55.912H37.9802V56.8506H37.908V57.7893H37.8358V58.728H37.7636V59.5945H37.6914V60.5331H37.6192V61.4718H37.547V62.4105H37.4748V63.1325H37.4026V63.3492H37.3304V63.4936H37.2582V63.5658H37.186V63.7102H37.1138V63.7824H37.0415V63.8546H36.8971V63.9268H36.8249V63.999H36.6805V64.0712H36.4639V64.1434H35.9585ZM47.9446 64.1434V64.0712H47.6558V63.999H47.5114V63.9268H47.4392V63.8546H47.2948V63.7824H47.2226V63.7102H47.0781V63.5658H47.0059V63.4936H46.9337V63.3492H46.8615V63.277H46.7893V63.0603H46.7171V62.6271H46.6449V61.4718H46.5727V60.2443H46.5005V59.089H46.4283V57.8615H46.3561V56.7062H46.2839V55.4787H46.2117V54.3234H46.1395V53.0959H46.0673V51.9407H45.9951V50.7132H45.9228V49.5579H45.8506V48.3304H45.7784V45.3699H45.8506V42.7705H45.9228V40.1711H45.9951V37.5717H46.0673V34.9723H46.1395V32.3729H46.2117V29.7735H46.2839V27.1019H46.3561V24.5025H46.4283V21.9031H46.5005V19.3036H46.5727V16.7042H46.6449V14.1048H46.7171V13.7438H46.7893V13.5272H46.8615V13.455H46.9337V13.3106H47.0059V13.2384H47.0781V13.094H47.2226V13.0218H47.2948V12.9495H47.4392V12.8773H47.5114V12.8051H47.6558V12.7329H47.9446V12.6607H48.4501V12.7329H48.7389V12.8051H48.8833V12.8773H48.9555V12.9495H49.0999V13.0218H49.1721V13.094H49.3165V13.2384H49.3887V13.3106H49.4609V13.455H49.5331V13.5272H49.6053V13.7438H49.6775V14.2493H49.7498V16.5598H49.822V18.8704H49.8942V21.181H49.9664V23.4916H50.0386V25.8022H50.1108V28.1128H50.183V30.4233H50.2552V32.7339H50.3274V35.0445H50.3996V37.4273H50.4718V39.7379H50.544V42.0485H50.6162V44.359H50.6884V46.6696H50.7606V47.7527H50.6884V48.8358H50.6162V49.8467H50.544V50.9298H50.4718V52.0129H50.3996V53.0237H50.3274V54.1068H50.2552V55.1899H50.183V56.273H50.1108V57.2839H50.0386V58.367H49.9664V59.45H49.8942V60.4609H49.822V61.544H49.7498V62.6271H49.6775V63.0603H49.6053V63.277H49.5331V63.3492H49.4609V63.4936H49.3887V63.5658H49.3165V63.7102H49.1721V63.7824H49.0999V63.8546H48.9555V63.9268H48.8833V63.999H48.7389V64.0712H48.4501V64.1434H47.9446ZM54.0821 64.1434V64.0712H53.7933V63.999H53.5767V63.9268H53.4322V63.8546H53.36V63.7824H53.2156V63.7102H53.1434V63.638H53.0712V63.5658H52.999V63.4214H52.9268V63.3492H52.8546V63.2047H52.7824V63.1325H52.7102V62.8437H52.638V62.1217H52.5658V60.8942H52.4936V59.5945H52.4214V58.2948H52.3492V56.9951H52.277V55.6953H52.2047V54.4678H52.1325V53.1681H52.0603V51.8684H51.9881V50.5687H51.9159V49.269H51.8437V48.0415H51.7715V46.092H51.8437V43.3482H51.9159V40.6043H51.9881V37.7883H52.0603V35.0445H52.1325V32.3007H52.2047V29.5569H52.277V26.7408H52.3492V23.997H52.4214V21.2532H52.4936V18.5094H52.5658V15.7656H52.638V14.6825H52.7102V14.3937H52.7824V14.2493H52.8546V14.177H52.9268V14.1048H52.999V13.9604H53.0712V13.8882H53.1434V13.816H53.2156V13.7438H53.36V13.6716H53.4322V13.5994H53.5767V13.5272H53.7211V13.455H54.0099V13.3828H54.5153V13.455H54.8042V13.5272H54.9486V13.5994H55.093V13.6716H55.1652V13.7438H55.3096V13.816H55.3818V13.8882H55.454V13.9604H55.5262V14.1048H55.5984V14.177H55.6706V14.3215H55.7428V14.3937H55.815V14.6825H55.8872V15.7656H55.9594V18.2206H56.0317V20.6034H56.1039V23.1306H56.1761V25.5133H56.2483V27.9683H56.3205V30.4233H56.3927V32.8783H56.4649V35.3333H56.5371V37.7883H56.6093V40.2433H56.6815V42.6983H56.7537V45.1533H56.8259V48.4748H56.7537V49.6301H56.6815V50.7132H56.6093V51.8684H56.5371V53.0237H56.4649V54.179H56.3927V55.3343H56.3205V56.4896H56.2483V57.5727H56.1761V58.728H56.1039V59.8833H56.0317V61.0386H55.9594V62.1939H55.8872V62.8437H55.815V63.0603H55.7428V63.2047H55.6706V63.3492H55.5984V63.4214H55.5262V63.5658H55.454V63.638H55.3818V63.7102H55.3096V63.7824H55.1652V63.8546H55.093V63.9268H54.9486V63.999H54.7319V64.0712H54.4431V64.1434H54.0821ZM60.0752 64.1434V64.0712H59.7864V63.999H59.5697V63.9268H59.4975V63.8546H59.3531V63.7824H59.2809V63.7102H59.1365V63.638H59.0643V63.4936H58.9921V63.4214H58.9199V63.277H58.8477V63.2047H58.7755V63.0603H58.7033V62.7715H58.6311V62.1217H58.5589V60.7498H58.4866V59.3778H58.4144V57.9337H58.3422V56.5618H58.27V55.1177H58.1978V53.7458H58.1256V52.3017H58.0534V50.9298H57.9812V49.5579H57.909V48.1137H57.8368V45.9476H57.909V42.9871H57.9812V40.0989H58.0534V37.1385H58.1256V34.2502H58.1978V31.362H58.27V28.4016H58.3422V25.5133H58.4144V22.5529H58.4866V19.6647H58.5589V16.7765H58.6311V15.8378H58.7033V15.549H58.7755V15.4045H58.8477V15.3323H58.9199V15.1879H58.9921V15.1157H59.0643V14.9713H59.1365V14.8991H59.2809V14.8269H59.3531V14.7547H59.4975V14.6825H59.5697V14.6103H59.7141V14.5381H60.003V14.4659H60.725V14.5381H61.0138V14.6103H61.1583V14.6825H61.2305V14.7547H61.3749V14.8269H61.4471V14.8991H61.5915V14.9713H61.6637V15.0435H61.7359V15.1879H61.8081V15.2601H61.8803V15.4045H61.9525V15.4767H62.0247V15.7656H62.0969V15.9822H62.1691V18.5816H62.2413V21.181H62.3136V23.7804H62.3858V26.3798H62.458V28.9792H62.5302V31.5786H62.6024V34.178H62.6746V36.7774H62.7468V39.3769H62.819V41.9763H62.8912V44.5757H62.9634V47.1751H63.0356V47.5361H62.9634V48.7636H62.8912V50.0633H62.819V51.2908H62.7468V52.5183H62.6746V53.7458H62.6024V55.0455H62.5302V56.273H62.458V57.5005H62.3858V58.8002H62.3136V60.0277H62.2413V61.2552H62.1691V62.6271H62.0969V62.8437H62.0247V63.1325H61.9525V63.2047H61.8803V63.3492H61.8081V63.4214H61.7359V63.4936H61.6637V63.638H61.5915V63.7102H61.4471V63.7824H61.3749V63.8546H61.2305V63.9268H61.1583V63.999H60.9416V64.0712H60.725V64.1434H60.0752ZM66.0683 64.1434V64.0712H65.8516V63.999H65.7072V63.9268H65.5628V63.8546H65.4184V63.7824H65.3462V63.7102H65.274V63.638H65.2018V63.5658H65.1296V63.4936H65.0574V63.4214H64.9852V63.3492H64.913V63.2047H64.8408V63.0603H64.7685V62.8437H64.6963V62.4827H64.6241V61.1108H64.5519V59.5223H64.4797V58.0059H64.4075V56.4896H64.3353V54.9733H64.2631V53.3848H64.1909V51.8684H64.1187V50.3521H64.0465V48.7636H63.9743V43.998H64.0465V40.1711H64.1187V36.3442H64.1909V32.5173H64.2631V28.6904H64.3353V24.8635H64.4075V21.0366H64.4797V17.2097H64.5519V13.3828H64.6241V10.0613H64.6963V9.77249H64.7685V9.55588H64.8408V9.41147H64.913V9.26705H64.9852V9.19485H65.0574V9.12264H65.1296V8.97823H65.2018V8.90603H65.274V8.83382H65.4184V8.76161H65.4906V8.68941H65.635V8.6172H65.7794V8.545H65.9238V8.47279H66.2849V8.40059H66.7903V8.47279H67.0791V8.545H67.2957V8.6172H67.4402V8.68941H67.5846V8.76161H67.6568V8.83382H67.729V8.90603H67.8734V8.97823H67.9456V9.12264H68.0178V9.19485H68.09V9.26705H68.1622V9.41147H68.2344V9.55588H68.3066V9.77249H68.3788V10.1335H68.451V13.3106H68.5232V16.7042H68.5955V20.1701H68.6677V23.5638H68.7399V26.9575H68.8121V30.4233H68.8843V33.817H68.9565V37.2829H69.0287V40.6766H69.1009V44.0702H69.1731V48.7636H69.1009V50.1355H69.0287V51.5074H68.9565V52.8793H68.8843V54.2512H68.8121V55.6231H68.7399V56.9951H68.6677V58.367H68.5955V59.7389H68.5232V61.1108H68.451V62.4827H68.3788V62.8437H68.3066V63.0603H68.2344V63.1325H68.1622V63.277H68.09V63.4214H68.0178V63.4936H67.9456V63.5658H67.8734V63.638H67.8012V63.7102H67.729V63.7824H67.6568V63.8546H67.5124V63.9268H67.368V63.999H67.2235V64.0712H67.0069V64.1434H66.0683ZM29.8932 64.0712V63.999H29.7488V63.9268H29.6044V63.8546H29.5321V63.7824H29.4599V63.7102H29.3877V63.638H29.3155V63.4936H29.2433V63.3492H29.1711V62.9159H29.0989V61.9772H29.0267V60.9664H28.9545V59.9555H28.8823V59.0168H28.8101V58.0059H28.7379V57.0673H28.6657V56.0564H28.5935V55.0455H28.5213V54.1068H28.4491V53.0959H28.3769V52.0851H28.3046V51.1464H28.2324V50.1355H28.1602V49.1246H28.088V48.186H28.0158V46.1642H28.088V44.6479H28.1602V43.1315H28.2324V41.6152H28.3046V40.0989H28.3769V38.5826H28.4491V37.0663H28.5213V35.5499H28.5935V33.9614H28.6657V32.4451H28.7379V30.9288H28.8101V29.4125H28.8823V27.8961H28.9545V26.3798H29.0267V24.8635H29.0989V23.3472H29.1711V22.9139H29.2433V22.6973H29.3155V22.6251H29.3877V22.4807H29.4599V22.4085H29.5321V22.3363H29.6766V22.2641H29.821V22.1919H29.9654V22.1197H30.543V22.1919H30.7596V22.2641H30.9041V22.3363H30.9763V22.4085H31.0485V22.4807H31.1207V22.5529H31.1929V22.6251H31.2651V22.7695H31.3373V22.9861H31.4095V23.636H31.4817V25.0079H31.5539V26.3798H31.6261V27.6795H31.6983V29.0514H31.7705V30.4233H31.8427V31.723H31.9149V33.095H31.9871V34.4669H32.0593V35.7666H32.1316V37.1385H32.2038V38.5104H32.276V39.8101H32.3482V41.182H32.4204V42.5539H32.4926V43.8536H32.5648V45.2255H32.637V46.5974H32.7092V47.8971H32.637V48.7636H32.5648V49.6301H32.4926V50.4965H32.4204V51.363H32.3482V52.2295H32.276V53.1681H32.2038V54.0346H32.1316V54.9011H32.0593V55.7676H31.9871V56.634H31.9149V57.5005H31.8427V58.367H31.7705V59.2334H31.6983V60.0999H31.6261V60.9664H31.5539V61.8328H31.4817V62.6993H31.4095V63.277H31.3373V63.4936H31.2651V63.5658H31.1929V63.7102H31.1207V63.7824H31.0485V63.8546H30.9763V63.9268H30.8319V63.999H30.6874V64.0712H29.8932ZM41.8071 64.0712V63.999H41.5905V63.9268H41.4461V63.8546H41.3739V63.7824H41.2295V63.7102H41.1573V63.5658H41.0851V63.4936H41.0129V63.4214H40.9407V63.277H40.8684V63.0603H40.7962V62.3383H40.724V61.2552H40.6518V60.0999H40.5796V59.0168H40.5074V57.8615H40.4352V56.7784H40.363V55.6953H40.2908V54.5401H40.2186V53.457H40.1464V52.3017H40.0742V51.2186H40.002V50.0633H39.9298V48.9802H39.8576V47.8971H39.7854V46.3808H39.8576V44.0702H39.9298V41.7596H40.002V39.3769H40.0742V37.0663H40.1464V34.7557H40.2186V32.4451H40.2908V30.0623H40.363V27.7517H40.4352V25.3689H40.5074V23.0583H40.5796V20.7478H40.6518V18.365H40.724V16.0544H40.7962V14.9713H40.8684V14.6825H40.9407V14.6103H41.0129V14.4659H41.0851V14.3937H41.1573V14.2493H41.3017V14.177H41.3739V14.1048H41.5183V14.0326H41.5905V13.9604H41.8793V13.8882H42.457V13.9604H42.7458V14.0326H42.818V14.1048H42.9624V14.177H43.0346V14.2493H43.179V14.3937H43.2512V14.4659H43.3234V14.6103H43.3956V14.6825H43.4679V14.8991H43.5401V15.4767H43.6123V17.4985H43.6845V19.5925H43.7567V21.6864H43.8289V23.7082H43.9011V25.8022H43.9733V27.8961H44.0455V29.9179H44.1177V32.0119H44.1899V34.1058H44.2621V36.1276H44.3343V38.2216H44.4065V40.3155H44.4787V42.3373H44.5509V44.4313H44.6231V46.453H44.6954V47.8249H44.6231V48.8358H44.5509V49.7745H44.4787V50.7854H44.4065V51.7962H44.3343V52.8071H44.2621V53.7458H44.1899V54.7567H44.1177V55.7676H44.0455V56.7062H43.9733V57.7171H43.9011V58.728H43.8289V59.6667H43.7567V60.6775H43.6845V61.6884H43.6123V62.6271H43.5401V63.0603H43.4679V63.277H43.3956V63.4214H43.3234V63.4936H43.2512V63.638H43.179V63.7102H43.1068V63.7824H42.9624V63.8546H42.8902V63.9268H42.7458V63.999H42.6014V64.0712H41.8071ZM72.2057 64.0712V63.999H71.9891V63.9268H71.7725V63.8546H71.7003V63.7824H71.5559V63.7102H71.4837V63.638H71.3393V63.5658H71.2671V63.4936H71.1949V63.4214H71.1227V63.3492H71.0504V63.2047H70.9782V63.1325H70.906V62.9881H70.8338V62.8437H70.7616V62.6271H70.6894V62.1939H70.6172V60.822H70.545V59.5223H70.4728V58.2225H70.4006V56.9228H70.3284V55.6231H70.2562V54.2512H70.184V52.9515H70.1118V51.6518H70.0396V50.3521H69.9674V49.0524H69.8952V47.7527H69.8229V46.5252H69.8952V42.9149H69.9674V39.3046H70.0396V35.6944H70.1118V32.0841H70.184V28.4738H70.2562V24.8635H70.3284V21.2532H70.4006V17.6429H70.4728V14.0326H70.545V10.4223H70.6172V6.81206H70.6894V6.45103H70.7616V6.16221H70.8338V6.0178H70.906V5.87338H70.9782V5.80118H71.0504V5.72897H71.1227V5.58456H71.1949V5.51235H71.2671V5.44015H71.3393V5.36794H71.4837V5.29574H71.5559V5.22353H71.7003V5.15133H71.8447V5.07912H71.9891V5.00691H72.2057V4.93471H73.0722V5.00691H73.361V5.07912H73.5054V5.15133H73.6498V5.22353H73.7943V5.29574H73.8665V5.36794H73.9387V5.44015H74.0831V5.51235H74.1553V5.65677H74.2275V5.72897H74.2997V5.80118H74.3719V5.94559H74.4441V6.09H74.5163V6.23441H74.5885V6.45103H74.6607V7.67853H74.7329V11H74.8051V14.3215H74.8773V17.6429H74.9496V20.9644H75.0218V24.2859H75.094V27.6073H75.1662V30.9288H75.2384V34.2502H75.3106V37.5717H75.3828V40.8932H75.455V44.2146H75.5272V48.6192H75.455V49.7745H75.3828V51.002H75.3106V52.2295H75.2384V53.3848H75.1662V54.6123H75.094V55.8398H75.0218V56.9951H74.9496V58.2225H74.8773V59.45H74.8051V60.6053H74.7329V61.8328H74.6607V62.5549H74.5885V62.7715H74.5163V62.9159H74.4441V63.0603H74.3719V63.2047H74.2997V63.277H74.2275V63.3492H74.1553V63.4936H74.0831V63.5658H73.9387V63.638H73.8665V63.7102H73.7943V63.7824H73.6498V63.8546H73.5054V63.9268H73.361V63.999H73.1444V64.0712H72.2057ZM24.2611 63.999V63.9268H23.9723V63.8546H23.8279V63.7824H23.7557V63.7102H23.6835V63.638H23.6113V63.5658H23.5391V63.4214H23.4669V63.277H23.3947V62.6271H23.3225V61.7606H23.2502V60.822H23.178V59.8833H23.1058V58.9446H23.0336V58.0059H22.9614V57.0673H22.8892V56.1286H22.817V55.2621H22.7448V54.3234H22.6726V53.3848H22.6004V52.4461H22.5282V51.5074H22.456V50.5687H22.3838V49.7023H22.3116V48.7636H22.2394V47.8249H22.1672V46.9585H22.2394V46.092H22.3116V45.1533H22.3838V44.2868H22.456V43.4204H22.5282V42.5539H22.6004V41.6874H22.6726V40.7488H22.7448V39.8823H22.817V39.0158H22.8892V38.1494H22.9614V37.2829H23.0336V36.3442H23.1058V35.4777H23.178V34.6113H23.2502V33.7448H23.3225V32.8061H23.3947V32.2285H23.4669V32.0841H23.5391V31.9397H23.6113V31.8675H23.6835V31.7952H23.7557V31.723H23.8279V31.6508H23.9723V31.5786H24.3333V31.5064H24.4777V31.5786H24.8388V31.6508H24.911V31.723H25.0554V31.7952H25.1276V31.8675H25.1998V31.9397H25.272V32.0841H25.3442V32.3007H25.4164V32.8783H25.4886V33.6726H25.5608V34.3947H25.633V35.1889H25.7052V35.9832H25.7774V36.7774H25.8497V37.4995H25.9219V38.2938H25.9941V39.088H26.0663V39.8823H26.1385V40.6043H26.2107V41.3986H26.2829V42.1929H26.3551V42.9871H26.4273V43.7814H26.4995V44.5035H26.5717V45.2977H26.6439V46.092H26.7161V46.8862H26.7883V47.8971H26.7161V48.7636H26.6439V49.5579H26.5717V50.3521H26.4995V51.2186H26.4273V52.0129H26.3551V52.8071H26.2829V53.6014H26.2107V54.4678H26.1385V55.2621H26.0663V56.0564H25.9941V56.9228H25.9219V57.7171H25.8497V58.5114H25.7774V59.3778H25.7052V60.1721H25.633V60.9664H25.5608V61.8328H25.4886V62.6271H25.4164V63.2047H25.3442V63.4214H25.272V63.5658H25.1998V63.638H25.1276V63.7102H25.0554V63.7824H24.9832V63.8546H24.8388V63.9268H24.55V63.999H24.2611ZM18.2681 63.7102V63.638H18.1236V63.5658H18.0514V63.4936H17.907V63.3492H17.8348V63.277H17.7626V63.0603H17.6904V62.5549H17.6182V61.6884H17.546V60.822H17.4738V59.9555H17.4016V59.089H17.3294V58.2225H17.2572V57.3561H17.185V56.4896H17.1128V55.6231H17.0406V54.7567H16.9683V53.8902H16.8961V53.0237H16.8239V52.1573H16.7517V51.2908H16.6795V50.4243H16.6073V49.5579H16.5351V48.6914H16.4629V47.8249H16.3907V46.8862H16.4629V46.0198H16.5351V45.0811H16.6073V44.2146H16.6795V43.276H16.7517V42.4095H16.8239V41.543H16.8961V40.6043H16.9683V39.7379H17.0406V38.7992H17.1128V37.9327H17.185V37.0663H17.2572V36.1276H17.3294V35.2611H17.4016V34.3224H17.4738V33.456H17.546V32.5895H17.6182V31.6508H17.6904V31.1454H17.7626V31.001H17.8348V30.8566H17.907V30.7844H17.9792V30.7122H18.0514V30.64H18.1958V30.5677H18.3403V30.4955H18.7735V30.5677H18.9901V30.64H19.0623V30.7122H19.2067V30.8566H19.2789V30.9288H19.3511V31.0732H19.4233V31.2898H19.4955V32.0841H19.5678V32.8783H19.64V33.6726H19.7122V34.4669H19.7844V35.2611H19.8566V36.0554H19.9288V36.8496H20.001V37.6439H20.0732V38.4382H20.1454V39.1602H20.2176V39.9545H20.2898V40.7488H20.362V41.543H20.4342V42.3373H20.5064V43.1315H20.5786V43.9258H20.6508V44.7201H20.723V45.5143H20.7953V46.3086H20.8675V47.1029H20.9397V47.6805H20.8675V48.4026H20.7953V49.1968H20.723V49.9189H20.6508V50.7132H20.5786V51.5074H20.5064V52.2295H20.4342V53.0237H20.362V53.7458H20.2898V54.5401H20.2176V55.2621H20.1454V56.0564H20.0732V56.8506H20.001V57.5727H19.9288V58.367H19.8566V59.089H19.7844V59.8833H19.7122V60.6053H19.64V61.3996H19.5678V62.1939H19.4955V62.9159H19.4233V63.2047H19.3511V63.277H19.2789V63.4214H19.2067V63.4936H19.1345V63.5658H18.9901V63.638H18.8457V63.7102H18.2681ZM12.636 63.1325V63.0603H12.4194V62.9881H12.3472V62.9159H12.2028V62.7715H12.1306V62.6993H12.0584V62.4105H11.9862V61.6162H11.9139V60.822H11.8417V60.0277H11.7695V59.2334H11.6973V58.4392H11.6251V57.6449H11.5529V56.8506H11.4807V56.0564H11.4085V55.2621H11.3363V54.4678H11.2641V53.6736H11.1919V52.8793H11.1197V52.0851H11.0475V51.2908H10.9753V50.4965H10.9031V49.7023H10.8309V48.908H10.7587V48.1137H10.6864V46.5974H10.7587V45.731H10.8309V44.9367H10.9031V44.1424H10.9753V43.276H11.0475V42.4817H11.1197V41.6152H11.1919V40.821H11.2641V39.9545H11.3363V39.1602H11.4085V38.366H11.4807V37.4995H11.5529V36.7052H11.6251V35.8388H11.6973V35.0445H11.7695V34.2502H11.8417V33.3838H11.9139V32.5895H11.9862V31.723H12.0584V31.5064H12.1306V31.362H12.2028V31.2898H12.275V31.2176H12.3472V31.1454H12.4916V31.0732H13.0692V31.1454H13.2136V31.2176H13.2859V31.2898H13.3581V31.362H13.4303V31.5064H13.5025V31.6508H13.5747V32.3007H13.6469V33.0227H13.7191V33.7448H13.7913V34.4669H13.8635V35.2611H13.9357V35.9832H14.0079V36.7052H14.0801V37.4273H14.1523V38.1494H14.2245V38.8714H14.2967V39.5935H14.3689V40.3155H14.4411V41.0376H14.5134V41.7596H14.5856V42.4817H14.6578V43.2038H14.73V43.9258H14.8022V44.6479H14.8744V45.3699H14.9466V46.092H15.0188V46.814H15.091V47.8971H15.0188V48.547H14.9466V49.269H14.8744V49.9911H14.8022V50.6409H14.73V51.363H14.6578V52.0851H14.5856V52.7349H14.5134V53.457H14.4411V54.179H14.3689V54.9011H14.2967V55.5509H14.2245V56.273H14.1523V56.9951H14.0801V57.6449H14.0079V58.367H13.9357V59.089H13.8635V59.7389H13.7913V60.4609H13.7191V61.183H13.6469V61.8328H13.5747V62.4827H13.5025V62.6993H13.4303V62.7715H13.3581V62.9159H13.2859V62.9881H13.1414V63.0603H12.997V63.1325H12.636ZM6.85955 60.822V60.7498H6.71513V60.6775H6.57072V60.5331H6.49852V60.3887H6.42631V60.0999H6.3541V59.45H6.2819V58.8002H6.20969V58.1503H6.13749V57.5005H6.06528V56.8506H5.99308V56.2008H5.92087V55.5509H5.84866V54.9011H5.77646V54.2512H5.70425V53.6014H5.63205V52.9515H5.55984V52.3017H5.48764V51.6518H5.41543V51.0742H5.34322V50.4243H5.27102V49.7745H5.19881V49.1246H5.12661V48.4748H5.0544V47.8249H4.9822V46.8862H5.0544V46.2364H5.12661V45.5865H5.19881V44.9367H5.27102V44.2868H5.34322V43.637H5.41543V42.9871H5.48764V42.2651H5.55984V41.6152H5.63205V40.9654H5.70425V40.3155H5.77646V39.6657H5.84866V39.0158H5.92087V38.366H5.99308V37.7161H6.06528V36.9941H6.13749V36.3442H6.20969V35.6944H6.2819V35.0445H6.3541V34.3947H6.42631V34.0336H6.49852V33.8892H6.57072V33.817H6.64293V33.7448H6.71513V33.6726H6.93175V33.6004H7.14837V33.6726H7.36498V33.7448H7.43719V33.817H7.5094V33.8892H7.5816V33.9614H7.65381V34.178H7.72601V34.7557H7.79822V35.3333H7.87043V35.911H7.94263V36.4886H8.01484V37.0663H8.08704V37.6439H8.15925V38.2216H8.23145V38.7992H8.30366V39.3769H8.37587V39.9545H8.44807V40.5321H8.52028V41.1098H8.59248V41.6874H8.66469V42.3373H8.73689V42.9149H8.8091V43.4926H8.88131V44.0702H8.95351V44.6479H9.02572V45.2255H9.09792V45.8032H9.17013V46.3808H9.24233V46.9585H9.31454V47.7527H9.24233V48.3304H9.17013V48.908H9.09792V49.4857H9.02572V50.0633H8.95351V50.6409H8.88131V51.2186H8.8091V51.724H8.73689V52.3017H8.66469V52.8793H8.59248V53.457H8.52028V54.0346H8.44807V54.6123H8.37587V55.1899H8.30366V55.6953H8.23145V56.273H8.15925V56.8506H8.08704V57.4283H8.01484V58.0059H7.94263V58.5836H7.87043V59.1612H7.79822V59.6667H7.72601V60.2443H7.65381V60.4609H7.5816V60.6053H7.5094V60.6775H7.43719V60.7498H7.29278V60.822H6.85955ZM1.37191 55.912V55.8398H1.2275V55.7676H1.15529V55.6231H1.08309V55.4787H1.01088V54.9733H0.938675V54.3956H0.866469V53.8902H0.794263V53.3126H0.722057V52.8071H0.649852V52.2295H0.577646V51.724H0.50544V51.1464H0.433234V50.6409H0.361029V50.0633H0.288823V49.5579H0.216617V49.0524H0.144411V48.4748H0.0722057V47.9693H0V46.814H0.0722057V46.2364H0.144411V45.6587H0.216617V45.1533H0.288823V44.5757H0.361029V44.0702H0.433234V43.4926H0.50544V42.9149H0.577646V42.4095H0.649852V41.8318H0.722057V41.3264H0.794263V40.7488H0.866469V40.1711H0.938675V39.6657H1.01088V39.1602H1.08309V38.9436H1.15529V38.8714H1.2275V38.7992H1.2997V38.727H1.44411V38.6548H1.87735V38.727H2.02176V38.7992H2.09397V38.8714H2.16617V39.0158H2.23838V39.2324H2.31058V39.6657H2.38279V40.1711H2.455V40.6043H2.5272V41.1098H2.59941V41.543H2.67161V42.0485H2.74382V42.4817H2.81602V42.9149H2.88823V43.4204H2.96044V43.8536H3.03264V44.359H3.10485V44.7923H3.17705V45.2255H3.24926V45.731H3.32146V46.1642H3.39367V46.6696H3.46588V47.1029H3.53808V47.6083H3.46588V48.1137H3.39367V48.547H3.32146V48.9802H3.24926V49.4134H3.17705V49.9189H3.10485V50.3521H3.03264V50.7854H2.96044V51.2908H2.88823V51.724H2.81602V52.1573H2.74382V52.6627H2.67161V53.0959H2.59941V53.5292H2.5272V53.9624H2.455V54.4678H2.38279V54.9011H2.31058V55.3343H2.23838V55.6231H2.16617V55.6953H2.09397V55.7676H2.02176V55.8398H1.94955V55.912" fill="white"/>
</svg>
