<svg width="211" height="48" viewBox="0 0 211 48" fill="none" xmlns="http://www.w3.org/2000/svg">
<path d="M27.6349 17.8037H40.3401V40.2541H0V17.8037H12.7052V29.0266H27.6349V17.8037ZM70.5549 29.3167C70.5549 33.116 68.0396 35.3633 64.6014 35.3633C61.2417 35.3633 58.6896 33.116 58.6896 29.3167V11.2413H53.05V29.2614C53.05 36.3765 58.1265 40.8712 64.6153 40.8712C71.104 40.8712 76.2221 36.3765 76.2221 29.2614V11.2413H70.5687L70.5549 29.3167ZM90.7226 19.5859C88.5535 19.5859 86.1353 20.507 84.9076 22.6115V20.1201H79.6234V40.2172H85.0738V28.6582C85.0738 26.3556 86.4583 24.5135 88.8397 24.5135C91.461 24.5135 92.5686 26.2727 92.5686 28.52V40.2172H98.0144V27.5483C98.0282 23.1319 95.7346 19.5767 90.7365 19.5767L90.7226 19.5859ZM110.71 28.0457L107.72 27.4332C106.58 27.2029 105.874 26.6181 105.874 25.6371C105.874 24.4905 106.903 23.6339 108.334 23.6339C110.346 23.6339 111.144 24.6701 111.338 25.8812H116.036C115.999 23.1181 113.807 19.5076 108.417 19.5076C104.074 19.5076 100.88 22.4872 100.88 26.0839C100.88 28.9068 102.639 31.2371 106.529 32.0706L109.321 32.6831C110.877 33.0101 111.49 33.7469 111.49 34.6449C111.49 35.7087 110.503 36.6482 108.721 36.6482C106.548 36.6482 105.366 35.414 105.089 33.9818H100.243C100.516 36.989 102.699 40.8159 108.763 40.8159C114.047 40.8159 116.71 37.4633 116.71 34.1936C116.705 31.2647 114.698 28.8562 110.724 28.0365L110.71 28.0457ZM139.873 30.1318C139.873 36.2199 136.061 40.7238 130.37 40.7238C127.601 40.7238 125.534 39.6185 124.551 38.2692V48H119.105V20.1109H124.389V22.6023C125.312 21.0504 127.541 19.6596 130.574 19.6596C136.485 19.6596 139.887 24.1543 139.887 30.1226L139.873 30.1318ZM134.506 30.1733C134.506 26.6181 132.295 24.5319 129.507 24.5319C126.72 24.5319 124.472 26.6181 124.472 30.1733C124.472 33.7285 126.725 35.8515 129.507 35.8515C132.29 35.8515 134.542 33.7607 134.542 30.1641L134.506 30.1733ZM165.888 20.1201H171.172V40.2172H165.726V37.7719C164.803 39.3837 162.694 40.71 159.907 40.71C154.216 40.71 150.404 36.2107 150.404 30.118C150.404 24.1312 153.806 19.655 159.704 19.655C162.736 19.655 164.928 21.0596 165.888 22.5977V20.1201ZM165.805 30.1733C165.805 26.6181 163.553 24.5319 160.77 24.5319C157.987 24.5319 155.772 26.6088 155.772 30.1641C155.772 33.7193 157.982 35.8423 160.77 35.8423C163.557 35.8423 165.809 33.7239 165.809 30.1641L165.805 30.1733ZM142.425 40.2172H147.871V11.2413H142.425V40.2172ZM203.505 19.5813C201.581 19.5813 199.352 20.2306 198.055 21.7826V11.2413H192.609V40.2126H198.055V28.4049C198.179 26.1944 199.532 24.4812 201.825 24.4812C204.447 24.4812 205.554 26.245 205.55 28.4924V40.2218H211V27.5483C210.995 23.1319 208.623 19.5813 203.505 19.5813ZM184.122 28.0365L181.154 27.424C180.015 27.1937 179.308 26.6088 179.308 25.6279C179.308 24.4812 180.333 23.6247 181.768 23.6247C183.776 23.6247 184.574 24.6608 184.768 25.872H189.462C189.425 23.1089 187.232 19.4984 181.842 19.4984C177.499 19.4984 174.306 22.478 174.306 26.0746C174.306 28.8976 176.069 31.2279 179.959 32.0614L182.728 32.6739C184.283 33.0009 184.897 33.7377 184.897 34.6357C184.897 35.6995 183.91 36.639 182.128 36.639C179.955 36.639 178.773 35.4048 178.496 33.9726H173.655C173.923 36.9798 176.106 40.8067 182.17 40.8067C187.454 40.8067 190.117 37.4541 190.117 34.1844C190.117 31.2647 188.109 28.8562 184.14 28.0365H184.122ZM27.6349 0H12.7052V11.2229H27.6349V0Z" fill="white"/>
</svg>
